<svg id="Layer_1" data-name="Layer 1" xmlns="http://www.w3.org/2000/svg" viewBox="0 0 361.08 300"><defs><style>.cls-1,.cls-5{fill:#646363;}.cls-1,.cls-3,.cls-4{fill-rule:evenodd;}.cls-2{fill:#1d1d1b;}.cls-3{fill:#fff;}.cls-4{fill:#d0d0d0;}</style></defs><title>National-Rural-Health-Mission</title><g id="Group_21650" data-name="Group 21650"><path id="Path_26818" data-name="Path 26818" class="cls-1" d="M180.61,35C260,35,324.36,91.62,324.36,161.47a116.36,116.36,0,0,1-30,77.18H66.84a116.35,116.35,0,0,1-30-77.18C36.82,91.53,101.16,35,180.53,35Z"/><path id="Path_26819" data-name="Path 26819" class="cls-2" d="M41.47,219.31l2.36,4.6-24,12.19-2.25-4.44,10-17.69L12.3,221.76,10,217.21l24.17-12.39,2.25,4.34-10.72,18,15.76-8Zm-22-28.91-7.6,5,9.15,1.05-1.55-6.19Zm6.85,6.74,6,.7,1.35,5.25L5.05,199.47,4,195.08l23.62-16.49,1.35,5.5-5,3.39,2.4,9.65ZM.3,166.52l4.71-.3.36,5,22.11-1.54.4,5L5.77,176.21l.36,5-5,.36-1-15.33Zm26.57-5L0,160.57v-5l26.87,1v5ZM14.11,143.58a9.62,9.62,0,0,0,3.3,0,8.51,8.51,0,0,0,3-1.09,8.27,8.27,0,0,0,2.6-2.6,7.42,7.42,0,0,0,1.4-3,7.82,7.82,0,0,0-1.2-6.3,8.93,8.93,0,0,0-5.66-3.65,8.16,8.16,0,0,0-6.25,1.15,7.84,7.84,0,0,0-3.55,5,8.23,8.23,0,0,0,1.08,6.34,8.09,8.09,0,0,0,5,3.65ZM13,148.82a16.85,16.85,0,0,1-4-1.44,12.92,12.92,0,0,1-3.2-2.5,13.33,13.33,0,0,1-3.35-5.78,13.72,13.72,0,0,1,1.9-11.6,13.07,13.07,0,0,1,3.85-3.74,14.22,14.22,0,0,1,5-2.05,13,13,0,0,1,5.41,0,13.54,13.54,0,0,1,5,2.05,13.07,13.07,0,0,1,3.8,3.79,14.35,14.35,0,0,1,2.15,5,13.36,13.36,0,0,1,0,5.49,15,15,0,0,1-2.2,5,13.28,13.28,0,0,1-4.05,3.74,13.85,13.85,0,0,1-5,1.85,16.31,16.31,0,0,1-5.4,0ZM35.59,116.1l-2.2,4.65L9,109.4l2.1-4.49,20-2.8L16,94.92l2.2-4.64,24.36,11.34-2.05,4.44-20.81,2.65,16.06,7.5ZM43.8,80.78,35,78.08l5,7.8,3.9-5Zm-1,9.54,3.26,5-3,4.6-15-24.54,2.7-3.61,27.32,7.79-3.36,4.5-5.79-1.7-5.85,8ZM69.07,68.14l-9.66,9.64-19-19,3.65-3.7L59.76,70.74,65.86,65l3.35,3.34Zm8.2-23.68,1-.65a8.33,8.33,0,0,0,3.35-3.65,3.91,3.91,0,0,0-.5-3.75,3.74,3.74,0,0,0-2.89-1.84,7.58,7.58,0,0,0-4.15,1.6l-1.65,1.08,5,7.19ZM85,55.9l-4.35,3-15-22.29L70.94,33a30.34,30.34,0,0,1,3.86-2.35,8.4,8.4,0,0,1,2.5-.85,7.89,7.89,0,0,1,4.6.5,8.5,8.5,0,0,1,3.51,3,8.4,8.4,0,0,1,1.5,5.34,7.43,7.43,0,0,1-2.3,5l11.4,5-5,3.5-13-6.64,7,10.34Zm2.6-33.37,5-2.35,6.81,13.94a11.27,11.27,0,0,0,2.89,4.19,3.14,3.14,0,0,0,5-2.3,12.58,12.58,0,0,0-1.54-5L99,17.08l5-2.3,7.46,15.29a21.69,21.69,0,0,1,1.6,4,7.16,7.16,0,0,1,0,2.69,7.93,7.93,0,0,1-1.55,3.75A9.1,9.1,0,0,1,108,43.16a9.42,9.42,0,0,1-4.2,1.08,8.22,8.22,0,0,1-3.9-1.08,7.26,7.26,0,0,1-2-1.7,19.39,19.39,0,0,1-2.2-3.79L88.22,22.38Zm33.62-.45,1.09-.3a8.59,8.59,0,0,0,4.34-2.45,3.74,3.74,0,0,0,.65-3.69,3.63,3.63,0,0,0-2.2-2.65,7.5,7.5,0,0,0-4.4,0l-1.9.55,2.4,8.34Zm3.8,13.29-5,1.45L112.64,11l6.16-1.75a36.57,36.57,0,0,1,4.4-1.05,9.8,9.8,0,0,1,2.65,0,7.81,7.81,0,0,1,4.15,2,8.06,8.06,0,0,1,2.4,4,8.36,8.36,0,0,1,0,5.54,7.51,7.51,0,0,1-3.75,3.9l9.45,8.14-6,1.75-10-10,3.46,12Zm26.82-17.24L147.66,10l-2,9,6.35-.9Zm-7.48,6.09L143.09,30l-5.4.75,6.6-28,4.5-.66,14,25-5.6.75-2.9-5-10,1.4Zm34.22,2.14L165,27.11,163.6.29l5-.29,1.15,22.13,8.4-.44v4.69Zm21.32-10-1.15,10.89-5-.55L196.57,0l5.26.55-1.15,10.84,8.6.9,1.15-10.84,5,.55-2.8,26.73-5-.55,1.15-10.89-8.6-.9Zm31.82,17.54-14.12-3.5,6.52-26.08,14.11,3.5-1.15,4.6-9-2.45-1.5,5.94,9,2.25-1.08,4.5-9.05-2.25L224,26.87l9,2.24-1.09,4.6Zm20-3.9V20.83l-6.1,6.9,6,2.29Zm-9.45,1.7-4,4.5-5-2,19.42-21.33,4.2,1.65V43.31l-5.31-2v-6l-9.3-3.55Zm27.92,20L258.42,45l13-23.49L276,24,265.22,43.37l7.4,4.1-2.3,4.14Zm28.42-12.94L296,42.65l-4.2-2.8L279.38,58.19,275,55.25l12.41-18.34-4.2-2.85,2.65-3.89,12.76,8.59Zm-1.4,20-7.31,8.1L286,63.35l17.95-20,4,3.5L300.74,55l6.41,5.75,7.3-8,3.9,3.5-18,20-3.9-3.5,7.3-8.09-6.4-5.78Zm15.92,35-2.7-4.45,23.17-14.34,3.62,6L324,96.82l20-4.25,3.62,6-23.06,13.79-2.65-4.4,16.78-10-20,4.2-2-3.4,13.21-15.91L313.2,93.24Zm12.56,24.43,25-10,1.95,5-25,10Zm11.66,6.59,1.05,4.7H338a3.78,3.78,0,0,0-2.45,1.4,3,3,0,0,0-.55,2.53,3.27,3.27,0,0,0,3.72,2.71,3.89,3.89,0,0,0,.49-.12c1.7-.36,2.65-1.84,2.85-4.39v-.8a9.34,9.34,0,0,1,1.75-5,6.65,6.65,0,0,1,4.1-2.4,8.55,8.55,0,0,1,6.4.8,7.18,7.18,0,0,1,3.41,5,7,7,0,0,1-.9,5.55,9.26,9.26,0,0,1-5,3.29l-1-4.69h0a2.65,2.65,0,0,0,2.27-3.3,2.92,2.92,0,0,0-1.21-1.85,3.28,3.28,0,0,0-2.35,0,3.52,3.52,0,0,0-1,.36,3.09,3.09,0,0,0-.7.65,7.74,7.74,0,0,0-.8,3.5v1.75a7.92,7.92,0,0,1-1.81,4.6,7.27,7.27,0,0,1-4.1,2.2,9.46,9.46,0,0,1-7-.85,8.08,8.08,0,0,1-3.75-5.5,7.44,7.44,0,0,1,1.19-6.2,9.44,9.44,0,0,1,5.79-3.54Zm3.95,19.52.45,5h-.4a4,4,0,0,0-2.61,1.15,2.82,2.82,0,0,0-.8,2.4,3.1,3.1,0,0,0,1.15,2.44,3.48,3.48,0,0,0,2.66.7c1.7,0,2.85-1.5,3.35-4v-.8a9.6,9.6,0,0,1,2.35-5,6.85,6.85,0,0,1,4.4-1.89,8.82,8.82,0,0,1,6.26,1.54,7.16,7.16,0,0,1,2.75,5.35,6.69,6.69,0,0,1-1.55,5.34,8.57,8.57,0,0,1-5.5,2.65l-.45-4.7h0a2.8,2.8,0,0,0,2-.95,2.51,2.51,0,0,0,.6-2.1,2.58,2.58,0,0,0-.95-1.94,3.1,3.1,0,0,0-2.3-.55,2.41,2.41,0,0,0-1,0,2.6,2.6,0,0,0-.8.55,7.71,7.71,0,0,0-1.25,3.39,13.9,13.9,0,0,1-.37,1.7,8.47,8.47,0,0,1-2.3,4.34,7.82,7.82,0,0,1-4.34,1.7,9.59,9.59,0,0,1-6.86-1.75,7.65,7.65,0,0,1-3.05-5.85,7.44,7.44,0,0,1,1.9-6,9.35,9.35,0,0,1,6.21-2.8Zm-7.18,21.65,26.92.5v5L334.16,171v-5Zm11.95,17.38a8.33,8.33,0,0,0-3.3,0,7.68,7.68,0,0,0-3,1.15,8.51,8.51,0,0,0-2.61,2.35,7.93,7.93,0,0,0-1.29,3.05,8,8,0,0,0,1.29,6.3,8.83,8.83,0,0,0,5.71,3.5,8.25,8.25,0,0,0,8.46-12.75,7.78,7.78,0,0,0-5.26-3.54Zm.85-5.44a14.2,14.2,0,0,1,4,1.35,12.76,12.76,0,0,1,3.26,2.44,13.63,13.63,0,0,1,3.45,5.75,13.87,13.87,0,0,1,.31,6.74,13.54,13.54,0,0,1-2,5,14.08,14.08,0,0,1-3.75,3.75,13.25,13.25,0,0,1-5,2.14,12.74,12.74,0,0,1-5.36,0,16.06,16.06,0,0,1-5-2,14.27,14.27,0,0,1-3.85-3.7,13.79,13.79,0,0,1,3.8-19.53,14.33,14.33,0,0,1,10.36-1.85ZM324.16,211l2.35-4.6,24,12.19-2.25,4.45-20,1.75,15,7.69-2.35,4.6L317,224.8l2.2-4.33L340,218.52l-15.76-8Z"/><path id="Path_26820" data-name="Path 26820" class="cls-3" d="M129,90.52a15.84,15.84,0,1,1-13.79,17.67,15.63,15.63,0,0,1-.12-1.93A15,15,0,0,1,129,90.52ZM88.05,157h0a5.87,5.87,0,0,0,8.16-.8l18.41-22v-8l-.45-.4h0a5.8,5.8,0,0,0-8.16.75L87.35,148.88a5.68,5.68,0,0,0,.63,8l.07.06Zm80.41-.75h0a5.87,5.87,0,0,1-8.16-.8L141.64,133.2a5.28,5.28,0,0,1-1.09-2.1v-3.26a5.66,5.66,0,0,1,1.81-2.79h0a5.86,5.86,0,0,1,8.16.8l18.66,22.28a5.77,5.77,0,0,1-.7,8.14ZM111.57,142l5.7-6.64v-8.45h20.81v6.74L144.6,142V170.5a5,5,0,0,1-5,5h-23a5,5,0,0,1-5-5h0V142Zm6.51,38.17h0a5.29,5.29,0,0,1,5,5.29v35a5.34,5.34,0,0,1-5,5.55h0a5.35,5.35,0,0,1-5.3-5.35v-35a5.3,5.3,0,0,1,5.1-5.49Zm20.77,0h0a5.3,5.3,0,0,1,5.3,5.29v35a5.36,5.36,0,0,1-5.3,5.35h0a5.36,5.36,0,0,1-5.36-5.35h0v-35a5.3,5.3,0,0,1,5.3-5.3h.06ZM241.11,99.92a14.69,14.69,0,1,1-12.85,16.33,14.25,14.25,0,0,1-.11-1.85A13.79,13.79,0,0,1,241.1,99.92Zm-30.27,62.59h0a5,5,0,0,0,6.95-1.15l16.42-22.63a5,5,0,0,0-1.05-6.89h0a5,5,0,0,0-7,1.15l-16.46,22.63a5,5,0,0,0,1.09,6.89Zm62.34-.7h0a5,5,0,0,1-7-.74l-.12-.16-17.86-21.53a4.64,4.64,0,0,1,.5-6.55l.25-.19h0a5.35,5.35,0,0,1,7.15.9l18,21.32a4.58,4.58,0,0,1-.37,6.49l-.37.31Zm-28-24,1,2.8,18.06,52.21c.95,2.74-2.35,5.24-5,5.24H223.65c-2.89,0-6.2-2.5-5-5.24l17.66-51,1.4-4c2.7-7.79,5-8.44,8,0Zm-14.31,64h0a5,5,0,0,1,5,5h0v15a5,5,0,0,1-5,5h0a5,5,0,0,1-5-5h0v-15a5,5,0,0,1,5-5Zm20,0h0a5,5,0,0,1,5,5h0v15a5,5,0,0,1-5,5h0a5,5,0,0,1-5-5h0v-15a5,5,0,0,1,5-5ZM189.38,175.4l.55,1.6,12.76,30c.7,1.55-1.08,3.05-2.65,3.05H174.61c-1.81,0-4.2-1.55-3.55-3.05L184,177.6l.8-2.3c1.55-4.5,2.89-5,4.6,0Zm-1.25-20.53a8.09,8.09,0,1,1-6.7,9.28,7.93,7.93,0,0,1-.11-1.29,7.5,7.5,0,0,1,6.79-8Zm-5.66,57.25h0a3,3,0,0,1,3,2.95v8.74a3,3,0,0,1-2.95,2.95h-.06a3,3,0,0,1-2.95-2.95h0v-9a3,3,0,0,1,2.95-2.95Zm10.5,0h0a3,3,0,0,1,3,2.95v8.74a3,3,0,0,1-2.95,2.95H193a3,3,0,0,1-3-2.9v-9a3,3,0,0,1,3-2.95Zm19.61-47.46a20.93,20.93,0,0,1-17.81,16.73l-3.1-7a15.8,15.8,0,0,0,13.86-10h7.05Zm-32.67,16.43c-9.61-2.59-16.51-9.59-16.51-17.88a14,14,0,0,1,.3-2.89l6.71.4a8.55,8.55,0,0,0,0,1.6c0,5.49,5,10,12.2,11.74l-2.53,7Z"/><path id="Path_26821" data-name="Path 26821" class="cls-4" d="M181.82,53.65a9.49,9.49,0,0,1,3,.75l2.2-3.85-1.51,4.2a10.63,10.63,0,0,1,2,1.3l6.2-5-5,6.25a9.43,9.43,0,0,1,1.55,2.39l4.25-1.29-3.95,2.05a9.8,9.8,0,0,1,.55,2.44l10.3.9-10.3.95a14.11,14.11,0,0,1-.55,2.5l3.95,2-4.25-1.3a10,10,0,0,1-1.55,2.4l5,6.19-6.2-5a10.7,10.7,0,0,1-2.7,1.7l1.2,4.24-1.95-4a8.28,8.28,0,0,1-2.2.45l-.91,10.29L180,73.94a11.15,11.15,0,0,1-2.95-.71l-2.2,3.85,1.5-4.2a9,9,0,0,1-2-1.34l-6.2,5,5-6.19a8.81,8.81,0,0,1-1.54-2.45l-4.26,1.3,3.95-2a10.24,10.24,0,0,1-.55-2.45l-10.3-.95,10.3-.9a11.08,11.08,0,0,1,.55-2.49l-3.95-2,4.26,1.34a10.06,10.06,0,0,1,1.54-2.39l-5-6.24,6.21,5a10.52,10.52,0,0,1,2.7-1.65l-1.21-4.29,2,4a10.3,10.3,0,0,1,2.2-.49l.9-10.29Z"/><path id="Path_26822" data-name="Path 26822" class="cls-2" d="M75.05,253.18h-1.7v4a3.45,3.45,0,0,1,0,1.2,2.68,2.68,0,0,1-.66,1.08,3.54,3.54,0,0,1-2.35.71l.65,1.15.4.7.5.8c.37.49.8,1.14,1.4,1.89a14,14,0,0,0,1,1.2l-1.65,1.7-.8-1.15-1.45-2.1c-.55-.85-1.09-1.75-1.6-2.69a8.91,8.91,0,0,1-.75-1.35l-1-1.75-1-1.95,1.75-1.4a3.19,3.19,0,0,0,.3.85,4.92,4.92,0,0,0,1,1.35,1.77,1.77,0,0,0,1.3.65.85.85,0,0,0,.5,0l.3-.36a2.68,2.68,0,0,0,0-.8V253.3H64v-2.2H75.14v2.2Zm4.55,0H78.3v14.29H76V253.18H73.35V251h6.24Zm8,8.8a3.64,3.64,0,0,1-2.3.85,3.5,3.5,0,0,1-2-.6,4.61,4.61,0,0,1-2-4v-5H79V251h6.6v2.2h-2l4,5.3V262Zm-.44-2.15-3.62-5v3.62a2.08,2.08,0,0,0,0,1.05,1.61,1.61,0,0,0,.69.7h.91a2,2,0,0,0,1.75-.9Zm10.95-6.64h-2.3v4.74h-5a1.47,1.47,0,0,0-1.25.7,3.14,3.14,0,0,0-.5,1.81,4.9,4.9,0,0,0,.55,2.15A4.76,4.76,0,0,0,91,264.24a3,3,0,0,0,2.06.55,2.63,2.63,0,0,0,1.65-.71,3.69,3.69,0,0,0,1.3-1.69l1.75,1.5a6.27,6.27,0,0,1-2,2.29,5.46,5.46,0,0,1-5.66-.19,6.88,6.88,0,0,1-2.2-2.53,7.33,7.33,0,0,1-.8-3.4,4.69,4.69,0,0,1,1-3.1,3.16,3.16,0,0,1,2.5-1.2h3.2v-2.65H85v-2.2H98.05v2.2Zm1.09,17.38-1.3,1.7L94.46,268l-3,4.25-1.55-1.35,3.62-4.14h1.6Zm4.5-17.38h-1.3v14.28h-2.3V253.18h-2.7V251h1.75a10.45,10.45,0,0,0-.45-1.75,9.91,9.91,0,0,0-1.25-2.75,2.21,2.21,0,0,0-1.85-1.35,2.4,2.4,0,0,0-1.55.6,2.11,2.11,0,0,0-.65,1.6,4.35,4.35,0,0,0,0,1.44,9.29,9.29,0,0,0,.55,1.25.7.7,0,0,0,.4.55H92v-.36l-.36-.65a3.17,3.17,0,0,1-.3-1,5,5,0,0,1,0-1.34,4.2,4.2,0,0,1,.3-1.65,4,4,0,0,1,1-1.35,4.08,4.08,0,0,1,3-1.08,3.49,3.49,0,0,1,2.53,1.08,8.72,8.72,0,0,1,1.76,2.6,16.71,16.71,0,0,1,1.08,2.75,7.06,7.06,0,0,1,.36,1.44h2.45v2.2Zm12.91,0h-1.35v14.28h-2.15v-4a4,4,0,0,1-1.3.8,3.83,3.83,0,0,1-1.35,0,4.42,4.42,0,0,1-2.6-.85,6,6,0,0,1-1.95-2.39,7.58,7.58,0,0,1-.71-3.2h.75a2.71,2.71,0,0,0,1.6-.55,2.45,2.45,0,0,0,.71-1.9,3.64,3.64,0,0,0-.37-1.55,2.72,2.72,0,0,0-.6-1h-4.2v-2.2h13.56v2.2Zm-3.5,7v-7.05h-3.31a5.62,5.62,0,0,1,.7,2.95,3.53,3.53,0,0,1-2.75,3.84,3.07,3.07,0,0,0,.9,1.7,2.47,2.47,0,0,0,.7.55,2.43,2.43,0,0,0,.85,0,2.94,2.94,0,0,0,1.3-.36l.55-.4.5-.45a3.75,3.75,0,0,0,.55-1Zm23.86-7h-1.4v14.28h-2.45V253.18h-3.26v7.95c0,.9,0,1.4-.85,1.4s-.6-.3-1.2-.9a15.2,15.2,0,0,1-1.7-1.89,4.31,4.31,0,0,1-.8-1.35.69.69,0,0,1,.36-.7.86.86,0,0,1,.45,0h1.45v-4.26h-4.46v-2.2h13.71v2.2Zm-3.2,9.44-5.61,5-1.3-2.14,6.91-4.45v1.6Zm9.36-9.44h-1.36v14.28h-2.3V253.18h-2.65V251h6.31Zm12.85,0h-1.3v14.28h-2.29v-7.29h-4.26v1.89a1.83,1.83,0,0,1,0,.66.61.61,0,0,1-.55.4,4.77,4.77,0,0,1-1.15-.9,15.58,15.58,0,0,1-1.44-2,3.69,3.69,0,0,1-.7-1.4.64.64,0,0,1,.36-.6H146v-5h-3.75V251h13.51v2.2Zm-3.62,5v-5h-4.25v5Zm9.26-5h-1.27v14.28H158V253.18h-2.7V251h1.75a14.35,14.35,0,0,0-.4-1.75,14.51,14.51,0,0,0-1.25-2.75,2.26,2.26,0,0,0-1.9-1.35,2.23,2.23,0,0,0-1.51.6,2.16,2.16,0,0,0-.7,1.6,5,5,0,0,0,0,1.44,9.29,9.29,0,0,0,.55,1.25.74.74,0,0,0,.4.55H150l-.25-.36-.36-.65a2.44,2.44,0,0,0-.3-1,6,6,0,0,1,0-1.34,4.39,4.39,0,0,1,.3-1.65,4.92,4.92,0,0,1,.95-1.35,4.09,4.09,0,0,1,3.05-1.08,3.52,3.52,0,0,1,2.54,1.08,9.79,9.79,0,0,1,1.81,2.6,22.25,22.25,0,0,1,1.05,2.75,7.06,7.06,0,0,1,.36,1.44h2.45v2.2Zm9.56,0h-.45v6a3.83,3.83,0,0,1-.5,1.9,4.42,4.42,0,0,1-1.35,1.5,3.22,3.22,0,0,1-3.66,0,5.37,5.37,0,0,1-1.35-1.5,3.85,3.85,0,0,1-.5-1.85v-6.1h-2.4V251h10v2.19Zm-3.06,6v-6.05h-2.75v6.05c0,1.2.5,1.75,1.45,1.75s1.3-.55,1.3-1.75Zm8.41-6h-1.3v14.28h-2.1V253.18h-2.7V251h6.3v2.19Zm18.86,6.59H193.1L192,257.83h3.62v1.95Zm-2-6.64H191.6v4a3,3,0,0,1-.9,2.4,2.42,2.42,0,0,1-1,.45H189l.65,1.15.9,1.5c.36.55.8,1.15,1.3,1.8l.75,1.05-1.81,1.6-.6-.95-1.26-2a14.25,14.25,0,0,1-.75-1.25c-.29-.45-.55-.92-.8-1.4-.58-1-1.11-2-1.6-3.05s-.85-1.74-.85-1.8l1.71-1.35a6,6,0,0,0,.6,1.4c.4.8.75,1.2,1.15,1.2s.9-.45.9-1.3V253h-6.17v-2.2h10.3V253Zm11.66,0h-1.3v14.28H201.4v-4.15h0a1.73,1.73,0,0,1-.44.37l-.75.3a3,3,0,0,1-.85,0,4.13,4.13,0,0,1-3.11-1.3,5,5,0,0,1-1.25-3.55,6.15,6.15,0,0,1,.5-2.35,4.12,4.12,0,0,1,1.4-1.64,3.21,3.21,0,0,1,1.95-.66,4.1,4.1,0,0,1,1.65.41V257l-.5-.36a1.91,1.91,0,0,0-.95,0,1.56,1.56,0,0,0-1.4.8,3.38,3.38,0,0,0-.55,1.95,2.79,2.79,0,0,0,.6,1.9,1.65,1.65,0,0,0,1.4.74,2,2,0,0,0,1.2-.4,2.71,2.71,0,0,0,.85-.9,1.55,1.55,0,0,0,.3-.65v-6.94h-8.7V251h12.31v2.19Zm5.65,0h-1.3v14.28h-2.3V253.18h-2.7V251h6.3v2.15Zm11.66,6.64h-2.45l-1.16-1.95h3.62Zm-2-6.64h-1.81v4a3,3,0,0,1-.85,2.4,2.55,2.55,0,0,1-1,.45H216l.65,1.15.9,1.5c.36.55.8,1.15,1.3,1.8l.75,1.05-1.81,1.6-.6-.95-1.26-2a14.25,14.25,0,0,1-.75-1.25c-.29-.45-.55-.92-.8-1.4-.58-1-1.11-2-1.6-3.05s-.85-1.74-.85-1.8l1.76-1.35a4.81,4.81,0,0,0,.55,1.4c.4.8.8,1.2,1.15,1.2s.9-.45.9-1.3V253H210v-2.2H220.4V253Zm10.56,9.34a5.91,5.91,0,0,1-4.5,2,4.65,4.65,0,0,1-2.95-1,5.71,5.71,0,0,1-1.95-2.3,9,9,0,0,1-1-2.89,4.74,4.74,0,0,0,2.1.4,3.46,3.46,0,0,0,1.55-.36,3.08,3.08,0,0,0,1.2-1.09,3.4,3.4,0,0,0,.45-1.84,3.58,3.58,0,0,0-.45-1.9,1.44,1.44,0,0,0-1.35-.8c-.8,0-1.2.45-1.2,1.3a1,1,0,0,0,.25.75.89.89,0,0,0,.7.36V257a4,4,0,0,1-1.35-.3,2.73,2.73,0,0,1-1.25-1,3,3,0,0,1-.5-1.85,3.6,3.6,0,0,1,.4-1.7,3.34,3.34,0,0,1,1.21-1.15,3.54,3.54,0,0,1,1.6-.4,3.62,3.62,0,0,1,2.05.7,5,5,0,0,1,1.5,1.85,6,6,0,0,1,.55,2.5,5.3,5.3,0,0,1-2.2,4.33,3.24,3.24,0,0,1-2,.7,2.52,2.52,0,0,0,.8,1,2.24,2.24,0,0,0,1.75.65,3.1,3.1,0,0,0,1.65-.5,4.91,4.91,0,0,0,1.4-1.08,9.81,9.81,0,0,0,1-1.2,2.74,2.74,0,0,0,.41-.7v3.62Zm11-9.34h-1.35v14.28h-2.39v-4a5.62,5.62,0,0,1-1.3.8,3.66,3.66,0,0,1-1.4,0,4.56,4.56,0,0,1-2.6-.85,6.69,6.69,0,0,1-2-2.39,7.72,7.72,0,0,1-.7-3.2h.75a2.65,2.65,0,0,0,1.6-.55,2.32,2.32,0,0,0,.75-1.9,3.79,3.79,0,0,0-.4-1.55,2.36,2.36,0,0,0-.55-1h-4.2v-2.2h13.61v2.2Zm-3.74,7.08v-7h-3.35a5.82,5.82,0,0,1,.7,2.95,3.49,3.49,0,0,1-2.75,3.84,3.79,3.79,0,0,0,.9,1.7,3.37,3.37,0,0,0,.75.55,2.15,2.15,0,0,0,.8,0,3,3,0,0,0,1.3-.36l.55-.4a2,2,0,0,0,.5-.45,3.17,3.17,0,0,0,.6-1Zm25.92-10H261.7l-.55-.75-.7-.8a7.57,7.57,0,0,0-.8-.9,8.82,8.82,0,0,0-2-1.54,4.35,4.35,0,0,0-2.3-.65,2.19,2.19,0,0,0-1.95.85,3.62,3.62,0,0,0-.7,2.29,2.36,2.36,0,0,0,0,.65,5.34,5.34,0,0,0,0,.8v.5h1.6v2.2h-1.15v14.29h-2.31v-14h-2.65V251h2.65v-.55a11.36,11.36,0,0,1,0-1.65,6.09,6.09,0,0,1,.55-2.59,4.3,4.3,0,0,1,1.71-1.75,3.12,3.12,0,0,1,1.15-.5,5.08,5.08,0,0,1,1.35,0,6.17,6.17,0,0,1,3.9,1.54,21,21,0,0,1,1.75,1.5,20.6,20.6,0,0,1,1.4,1.55c.59.76,1.14,1.54,1.65,2.35Zm3.4,2.7h-1.3v14.28h-2.3v-7H260v1.89a1.83,1.83,0,0,1,0,.66.51.51,0,0,1-.55.4,4.76,4.76,0,0,1-1.09-.9,18.84,18.84,0,0,1-1.45-2,3.69,3.69,0,0,1-.7-1.4.56.56,0,0,1,.36-.6H258v-5h-3.81V251H267.7v2.2Zm-3.62,5v-5H260v5Zm15-5h-2.7a7.66,7.66,0,0,1,.7,1.44,5.14,5.14,0,0,1,.25,1.6,7.73,7.73,0,0,1-.55,2.85,6.1,6.1,0,0,1-1.5,2.25,4.58,4.58,0,0,1-1.05.7,3.23,3.23,0,0,1-1.16,0l.56.6a6.21,6.21,0,0,0,.85.85l1.9,1.84-1.35,2.1-.66-.7-1.3-1.3-1.35-1.39-1.65-1.9-1-1.3,1.44-1.81.85,1h.75a2.89,2.89,0,0,0,2.4-2.8,4.11,4.11,0,0,1-1.81.55,2.94,2.94,0,0,1-2.3-.95,3.14,3.14,0,0,1-.95-2.49,3.46,3.46,0,0,1,.36-1.55h-3v-2.2H278.6v2.2Zm-4.1,1.84a2.08,2.08,0,0,0-.25-.8,2.15,2.15,0,0,0-.65-.84,1.64,1.64,0,0,0-1.05-.41,1,1,0,0,0-.85.5,1.69,1.69,0,0,0-.4,1.09,1.58,1.58,0,0,0,.44,1.2A1.5,1.5,0,0,0,273,256a1.62,1.62,0,0,0,1-.41,2,2,0,0,0,.66-.79Zm9.61-1.84h-1.21v14.28h-2.3v-14h-2.7V251h6.32v2.19Zm12.9,0h-1.35v14.28h-2.3v-8.49h-4.05v2.2c0,.7-.25,1.05-.7,1.05s-.6-.3-1.09-1l-.7-1-.65-1a4.54,4.54,0,0,1-.6-1.5c0-.45,0-.7.36-.85a1,1,0,0,1,.6-.25h6.86v-3.5h-10v-2.2H297.2v2.2Z"/><path id="Path_26823" data-name="Path 26823" class="cls-5" d="M125.27,299.74h-2.2l-.9-.8a10,10,0,0,1-1.5-1.8,13.31,13.31,0,0,1-1.45-3.3,17.23,17.23,0,0,1-.45-2.25,15.27,15.27,0,0,1,0-2.53,18.66,18.66,0,0,1,.55-4.59,14.57,14.57,0,0,1,1.3-3.4l.7-1.2.7-.9.8-1h2.61l-.9.9a12,12,0,0,0-1.41,2,10.38,10.38,0,0,0-.65,1.44l-.55,1.85a22,22,0,0,0-.45,5,22.55,22.55,0,0,0,0,2.6,10.29,10.29,0,0,0,.41,2.2,12.32,12.32,0,0,0,1.29,3.25,9,9,0,0,0,1.45,1.9l.9.85Zm12.46-3.54H127.24v-2.95a10.94,10.94,0,0,0,3.35-2.1,13.94,13.94,0,0,0,2.53-3,5,5,0,0,0,1-2.35,2,2,0,0,0-.75-1.75,3.78,3.78,0,0,0-2.1-.5,4.27,4.27,0,0,0-1.6.5,6.53,6.53,0,0,0-1.45,1l-.75-.54,1.25-2.53a7,7,0,0,1,1.55-.6,5.52,5.52,0,0,1,1.6-.3,6.67,6.67,0,0,1,2.5.49,4.13,4.13,0,0,1,2.66,4.15,5.5,5.5,0,0,1-.8,2.53,14.17,14.17,0,0,1-.9,1.5,15.57,15.57,0,0,1-1.21,1.5,10.56,10.56,0,0,1-1.29,1.3l-1.35,1.05h6.2v2.64Zm12.56-7a13.4,13.4,0,0,1-.5,3.62,6.23,6.23,0,0,1-1.7,2.75,4.35,4.35,0,0,1-3.05,1,3.79,3.79,0,0,1-2.8-1.08,6.57,6.57,0,0,1-1.76-2.75,10.65,10.65,0,0,1-.55-3.54,10.1,10.1,0,0,1,.55-3.45,6.21,6.21,0,0,1,1.71-2.8,4,4,0,0,1,2.8-1.05,4.5,4.5,0,0,1,3.1,1.05,5.58,5.58,0,0,1,1.65,2.7,17.08,17.08,0,0,1,.4,1.75,10.82,10.82,0,0,1,0,1.8Zm-3,0a15.6,15.6,0,0,0-.4-3.79A1.71,1.71,0,0,0,145,284c-.85,0-1.4.5-1.7,1.6a8.26,8.26,0,0,0-.41,1.7v1.95a10.5,10.5,0,0,0,.55,3.69c.37,1.05.91,1.6,1.66,1.6a1.6,1.6,0,0,0,1.29-.7,4.91,4.91,0,0,0,.7-1.89,15.22,15.22,0,0,0,0-2.7Zm15,0a12,12,0,0,1-.5,3.62,5.82,5.82,0,0,1-1.65,2.75,4.46,4.46,0,0,1-3,1,4,4,0,0,1-2.85-1.08,6.41,6.41,0,0,1-1.7-2.75,10.46,10.46,0,0,1-.61-3.54,11.85,11.85,0,0,1,.55-3.45,7.23,7.23,0,0,1,1.71-2.8,4.19,4.19,0,0,1,2.85-1.05,4.6,4.6,0,0,1,3.1,1.05,5.58,5.58,0,0,1,1.65,2.7,9.37,9.37,0,0,1,.36,1.75,10.82,10.82,0,0,1,0,1.8Zm-3,0a15.6,15.6,0,0,0-.4-3.79A1.76,1.76,0,0,0,157,284c-.8,0-1.35.5-1.7,1.6a12.54,12.54,0,0,0-.36,1.7,10.59,10.59,0,0,0,0,1.95,11.55,11.55,0,0,0,.55,3.69c.4,1.05.95,1.6,1.7,1.6a1.48,1.48,0,0,0,1.25-.7,4.45,4.45,0,0,0,.75-1.89,20.27,20.27,0,0,0,0-2.7Zm16,2.45a5.36,5.36,0,0,1,0,1.6,4.51,4.51,0,0,1-.65,1.25,4.74,4.74,0,0,1-2.15,1.65,8,8,0,0,1-3,.55,5.06,5.06,0,0,1-4.06-1.35,4.69,4.69,0,0,1-1-3h2.7a2.73,2.73,0,0,0,0,.7,3.64,3.64,0,0,0,.69,1,1.84,1.84,0,0,0,1.41.5,2.68,2.68,0,0,0,2.94-2.39,3.53,3.53,0,0,0,0-.46c0-1.95-.91-2.89-2.71-2.89a3.16,3.16,0,0,0-1.8.45c-.45.36-.7.65-.7.95l-1.76-1.35,1-7h8.48v2.25h-6.61l-.4,2.64a10.13,10.13,0,0,1,2.06,0,6.06,6.06,0,0,1,2.65.55,4.13,4.13,0,0,1,1.9,1.65,5,5,0,0,1,.7,2.8Zm12.67-1.3H177.52V288h10.31v2.4Zm13,5.85h-10.5v-2.95a10.6,10.6,0,0,0,3.3-2.1,14.31,14.31,0,0,0,2.61-3,5.05,5.05,0,0,0,.95-2.35,2.11,2.11,0,0,0-.7-1.75,4,4,0,0,0-2.1-.5,4.17,4.17,0,0,0-1.65.5,6.07,6.07,0,0,0-1.41,1l-.8-.54,1.3-2.53a6,6,0,0,1,1.51-.6,5.4,5.4,0,0,1,1.6-.3,7.34,7.34,0,0,1,2.53.49,4.49,4.49,0,0,1,1.9,1.55,4.3,4.3,0,0,1,.75,2.6,6.15,6.15,0,0,1-.8,2.53c-.3.5-.6,1-.95,1.5l-1.15,1.5a12.74,12.74,0,0,1-1.35,1.3,7.64,7.64,0,0,1-1.35,1.05h6.2v2.64Zm12.51-7a12,12,0,0,1-.5,3.62,5.82,5.82,0,0,1-1.65,2.75,4.51,4.51,0,0,1-3.11,1,4,4,0,0,1-2.8-1.08,7.07,7.07,0,0,1-1.75-2.75,11.84,11.84,0,0,1-.55-3.54,11.52,11.52,0,0,1,.55-3.45,6.64,6.64,0,0,1,1.7-2.8,4.21,4.21,0,0,1,2.85-1.05,4.62,4.62,0,0,1,3.11,1.05,5.73,5.73,0,0,1,1.65,2.7,10.66,10.66,0,0,0,.36,1.75,10.82,10.82,0,0,1,0,1.8Zm-3,0a15.12,15.12,0,0,0-.4-3.79,1.75,1.75,0,0,0-1.85-1.45c-.8,0-1.35.5-1.7,1.6a16.57,16.57,0,0,0-.36,1.7,12.69,12.69,0,0,0,0,1.95,11.55,11.55,0,0,0,.55,3.69c.4,1.05,1,1.6,1.65,1.6a1.56,1.56,0,0,0,1.3-.7,3.82,3.82,0,0,0,.7-1.89,15.22,15.22,0,0,0,0-2.7Zm12,6.3-3,.9V283.91l-2,.95-1.5.95-1-1.81,6.15-3.15,1.4.95v13.54Zm13.81.7h-10.5v-2.94a11,11,0,0,0,3.3-2.1,14.28,14.28,0,0,0,2.54-3,4.63,4.63,0,0,0,1-2.35,2.12,2.12,0,0,0-.71-1.75,4.05,4.05,0,0,0-2.1-.5,4.34,4.34,0,0,0-1.65.5,6,6,0,0,0-1.4,1l-.8-.55,1.25-2.53a7.11,7.11,0,0,1,1.55-.6,5.52,5.52,0,0,1,1.6-.3,7.13,7.13,0,0,1,2.54.5,5.08,5.08,0,0,1,1.9,1.54,4.27,4.27,0,0,1,.69,2.6,5.27,5.27,0,0,1-.8,2.53,10.83,10.83,0,0,1-.9,1.5,14.6,14.6,0,0,1-1.2,1.5,8,8,0,0,1-1.3,1.3,6.89,6.89,0,0,1-1.35,1.05H236v2.65Zm8.6-7.19a19.94,19.94,0,0,1-.55,5,13.28,13.28,0,0,1-1.35,3.26,8.83,8.83,0,0,1-1.44,1.89l-.86.75-2.39-.15.85-.9a6.7,6.7,0,0,0,1.35-1.94,12.53,12.53,0,0,0,1.15-3.26,22.6,22.6,0,0,0,.5-5,20.85,20.85,0,0,0,0-2.5,16.5,16.5,0,0,0-.45-2.2,11.89,11.89,0,0,0-1.3-3.25A9.44,9.44,0,0,0,239,279l-1.26-1.08h2.66l.85.95a11.87,11.87,0,0,1,1.55,2.1,14.48,14.48,0,0,1,1.4,3.29,15.21,15.21,0,0,1,.5,2.2,18.43,18.43,0,0,1,0,2.35Z"/></g></svg>