<svg xmlns="http://www.w3.org/2000/svg" viewBox="0 0 20.98 25"><defs><style>.cls-1{fill:#fff;}</style></defs><g id="Layer_2" data-name="Layer 2"><g id="Layer_1-2" data-name="Layer 1"><path class="cls-1" d="M5.82,3.34C11.87-2.13,18,0,21,3.38a9.36,9.36,0,0,0-6.21.27A17.44,17.44,0,0,0,9.65,7.16C10.5,8,11.3,8.79,12.08,9.6c.17.19.39.56.32.71a1,1,0,0,1-.72.43Q6.73,11.37,1.75,12c-.61.07-.8-.14-.71-.83.31-2.6.63-5.21,1-7.81.09-.73.17-1.45.3-2.17A.83.83,0,0,1,2.7.59a.76.76,0,0,1,.58.22C4.13,1.63,5,2.48,5.82,3.34Z"/><path class="cls-1" d="M0,21.69c4.59,1.23,8-.88,11.22-3.86l-1.7-1.7c-.29-.29-.59-.59-.87-.9-.42-.47-.3-.87.32-1,1.07-.17,2.15-.3,3.22-.43L19,13.05c.73-.08.91.1.82.83-.4,3.27-.81,6.53-1.23,9.8a.94.94,0,0,1-.39.69c-.17.07-.53-.12-.71-.3-.83-.78-1.62-1.6-2.45-2.43-2.6,2.33-5.45,3.7-8.93,3.29A9.82,9.82,0,0,1,0,21.69Z"/></g></g></svg>