<svg xmlns="http://www.w3.org/2000/svg" width="252.76" height="97" viewBox="0 0 252.76 97"><defs><style>.cls-1{fill:#0e6eb6;}.cls-1,.cls-2,.cls-3,.cls-5{fill-rule:evenodd;}.cls-2{fill:#f26329;}.cls-3{fill:#09a14a;}.cls-4,.cls-5{fill:#5d6366;}</style></defs><g id="Layer_2" data-name="Layer 2"><g id="Layer_1-2" data-name="Layer 1"><path class="cls-1" d="M5.6,49.24l-1-1a10.17,10.17,0,0,1,14.51,0l-1.06,1a8.7,8.7,0,0,0-12.42,0m3.65,3.51-1-.94a5,5,0,0,1,7.12,0l-1,.94a3.71,3.71,0,0,0-2.58-1.07,3.61,3.61,0,0,0-2.58,1.07m2.58,2.55L10,53.49a2.86,2.86,0,0,1,1.85-.78,2.76,2.76,0,0,1,1.83.78Zm0-6.06a5.88,5.88,0,0,1,4.31,1.83l1.15-1.15a7.64,7.64,0,0,0-10.95,0l1.14,1.16a6,6,0,0,1,4.35-1.84"/><path class="cls-1" d="M5,56.51H18.54C8.81,81.13,7.13,95.55,17,95.17-4.68,96.45-1.87,75.4,5,56.51"/><path class="cls-2" d="M17.44,18.77C29.84-1.39,49.89-3.46,64.19,3.89,80.05,12.05,85,30.92,81,47.5,77.52,62.63,67.57,76.44,54.69,85.32A65.31,65.31,0,0,1,28.46,95.74a42.6,42.6,0,0,0,18.68-12.2,57.33,57.33,0,0,0,8-11.18c7.33-9.83,10.67-19.48,10.92-27.88.47-11.27-4.43-22.45-14.78-27.6-9-4.58-21.14-4.34-33.89,1.89"/><path class="cls-3" d="M8.09,41.51c10.09-20,30.88-21.4,43.12-12.74A24,24,0,0,1,60.73,43c1.67,7.36.46,15-2.31,22.25A55.65,55.65,0,0,1,47.14,83.54c-7,7.7-16.95,13.58-27.63,13.46A23.69,23.69,0,0,1,7.38,93.73c5,2.42,12.88,1.57,17.66-.35C33,90.14,39.33,83.41,43.3,76c4.91-9.12,8.77-23.77,1-32.21C37.16,35.94,23,33.3,8.09,41.51"/><path class="cls-4" d="M245.17,53l2.4-6.88c-.29,0-.6,0-.85,0a5.46,5.46,0,0,0-4.05,1.56,7.43,7.43,0,0,0-2.07,3.86,3,3,0,0,0,.06,2,1.35,1.35,0,0,0,1.31.74,5.51,5.51,0,0,0,3.2-1.27m7.59-10-5,14.16h-4.08l.47-1.34a7.56,7.56,0,0,1-4.3,1.63,3.32,3.32,0,0,1-3.06-1.74,6,6,0,0,1-.39-4.45,10.57,10.57,0,0,1,4-6.3,12.18,12.18,0,0,1,7.87-2.45,19.27,19.27,0,0,1,4.52.49m-16.65-.23-5.06,14.39H227L232,42.75Zm-2.78-4a2.65,2.65,0,0,1,.92-1.56,2.71,2.71,0,0,1,1.64-.64,1.67,1.67,0,0,1,1.36.64,1.76,1.76,0,0,1,.28,1.56,2.93,2.93,0,0,1-1,1.61,2.62,2.62,0,0,1-1.66.61,1.67,1.67,0,0,1-1.34-.61,1.85,1.85,0,0,1-.24-1.61m-12.84,15,2.62-7.46a6.59,6.59,0,0,0-1-.08,5.82,5.82,0,0,0-3.7,1.24,5.31,5.31,0,0,0-2,3.1,2.77,2.77,0,0,0,.45,2.45,3,3,0,0,0,2.47.92,6.32,6.32,0,0,0,1.16-.17M231,35.51l-7.53,21.43a29.64,29.64,0,0,1-4.81.49c-2.44,0-4.25-.63-5.41-1.9s-1.48-2.92-1-5a9.93,9.93,0,0,1,3.54-5.68,10.08,10.08,0,0,1,6.7-2.35,16.74,16.74,0,0,1,2,.15l2.5-7.13Zm-27.86,7.24-.62,1.62a9.2,9.2,0,0,1,5.11-1.88,2.64,2.64,0,0,1,2.48,1.18,4.23,4.23,0,0,1,.24,3.25A11.26,11.26,0,0,1,210,48.2l-3.13,8.94h-4.07l3-8.59a3.86,3.86,0,0,0,.24-.75c.29-1.42,0-2.11-.83-2.11s-2.26.71-3.89,2.2l-3.27,9.25H194l5.09-14.39Zm-5.81-7.24-7.64,21.63h-4.37l7.63-21.63Zm-16.95,0-7.62,21.63H168.7l7.62-21.63ZM162.3,53l2.39-6.88c-.29,0-.6,0-.85,0a5.43,5.43,0,0,0-4,1.56,7.45,7.45,0,0,0-2.08,3.86,2.84,2.84,0,0,0,.08,2,1.33,1.33,0,0,0,1.3.74A5.61,5.61,0,0,0,162.3,53m7.58-10-5,14.16h-4.07l.47-1.34A7.72,7.72,0,0,1,157,57.43a3.36,3.36,0,0,1-3.09-1.74,6.2,6.2,0,0,1-.38-4.45,10.53,10.53,0,0,1,4-6.3,12.21,12.21,0,0,1,7.89-2.45,19.22,19.22,0,0,1,4.5.49m-17.69-3.26-1.23,3h3l-1.22,3.15h-3l-1.79,4.68a4.94,4.94,0,0,0-.34,1.1c-.3,1.28,0,1.9.82,1.9a7.15,7.15,0,0,0,2.52-.87l-.83,3.78a8.68,8.68,0,0,1-3.69.94,3.27,3.27,0,0,1-2.88-1.32,4.51,4.51,0,0,1-.38-3.47c.12-.4.24-.83.38-1.25l2.18-5.49H143l1.2-3.15h2.78l1.15-3Zm-10,3-5.09,14.39h-4.06l5.06-14.39Zm-2.81-4a2.9,2.9,0,0,1,.94-1.56,2.62,2.62,0,0,1,1.64-.64,1.67,1.67,0,0,1,1.37.64,2,2,0,0,1,.29,1.56,3.28,3.28,0,0,1-1,1.61A2.72,2.72,0,0,1,141,41a1.59,1.59,0,0,1-1.34-.61,1.86,1.86,0,0,1-.28-1.61M126.15,60.32c.14-.67-.41-1.17-1.61-1.42l-1.71-.41a4.36,4.36,0,0,0-1.62.41A1.78,1.78,0,0,0,120,60.18c-.21,1,.69,1.5,2.71,1.5a7.55,7.55,0,0,0,2.51-.32,1.41,1.41,0,0,0,1-1M126,50.79c1.47,0,2.42-1,2.89-3.1a1.92,1.92,0,0,0-.17-1.49,1.44,1.44,0,0,0-1.27-.55c-1.49,0-2.47,1-3,3.16-.28,1.3.21,2,1.51,2m9.83-8-1.09,3.15h-2.18a5.93,5.93,0,0,1,0,2.3,6.46,6.46,0,0,1-2.37,3.73,7.05,7.05,0,0,1-4.52,1.52,10.21,10.21,0,0,0-2,.13.78.78,0,0,0-.69.65c-.05.18,0,.33.26.52a19.12,19.12,0,0,0,2.86.61c1.69.29,2.84.77,3.41,1.54a3.25,3.25,0,0,1,.54,2.83c-.68,3.11-3.38,4.69-8.1,4.69a8.69,8.69,0,0,1-4.67-1,2.32,2.32,0,0,1-1.09-2.6c.32-1.37,1.67-2.48,4.09-3.2A2.35,2.35,0,0,1,119,55c.3-1.33,1.41-2.22,3.34-2.65a3.74,3.74,0,0,1-1.48-4.15,6.62,6.62,0,0,1,2.56-3.8,7.26,7.26,0,0,1,4.71-1.62Zm-16.23,0-5.09,14.39h-4.07l5.06-14.39Zm-2.84-4a3,3,0,0,1,1-1.56,2.69,2.69,0,0,1,1.63-.64,1.73,1.73,0,0,1,1.38.64,1.79,1.79,0,0,1,.26,1.56,3.24,3.24,0,0,1-1,1.61,2.65,2.65,0,0,1-1.67.61,1.63,1.63,0,0,1-1.33-.61,2.08,2.08,0,0,1-.29-1.61m-17.92.37-5,14.41h4.1a7.66,7.66,0,0,0,5.49-2.13,10.06,10.06,0,0,0,3-5.39,5.87,5.87,0,0,0-.79-5,5.5,5.5,0,0,0-4.67-1.93Zm-3.08-3.6h6.83c3.45,0,5.86,1,7.27,2.93s1.74,4.5,1.07,7.6A14.82,14.82,0,0,1,106.38,54a11,11,0,0,1-7.62,3.16H88.14Z"/><path class="cls-5" d="M89.86,71.92h2.35a3.34,3.34,0,0,0,2.14-.68,2.19,2.19,0,0,0,.76-1.8,2.27,2.27,0,0,0-.76-1.81A3.15,3.15,0,0,0,92.21,67H89.86Zm0,1.31v5.5H88.47v-13H91.9a5.58,5.58,0,0,1,3.43,1,3.46,3.46,0,0,1,1.27,2.79,3.4,3.4,0,0,1-1.27,2.78,5.42,5.42,0,0,1-3.43,1Z"/><path class="cls-5" d="M102.2,77.46a3,3,0,0,0,2.29-1,3.37,3.37,0,0,0,1-2.41,3.29,3.29,0,0,0-1-2.41,3.09,3.09,0,0,0-4.61,0,3.33,3.33,0,0,0-.95,2.41,3.41,3.41,0,0,0,.95,2.41,3,3,0,0,0,2.32,1m0,1.29a4.32,4.32,0,0,1-3.31-1.32,5.08,5.08,0,0,1,0-6.79,4.73,4.73,0,0,1,6.6,0,5.11,5.11,0,0,1,0,6.79,4.32,4.32,0,0,1-3.29,1.32"/><polygon class="cls-5" points="112.27 76.39 114.84 69.14 115.68 69.14 118.3 76.38 121.04 69.27 122.31 69.27 118.64 78.74 117.81 78.74 115.23 71.64 112.63 78.74 111.8 78.74 108.13 69.27 109.53 69.27 112.27 76.39"/><path class="cls-5" d="M130.11,72.89a3,3,0,0,0-.61-1.36,2.43,2.43,0,0,0-2-.89,2.55,2.55,0,0,0-1.93,1,4.2,4.2,0,0,0-.66,1.3ZM124.73,74h0a3.26,3.26,0,0,0,1,2.38,3.21,3.21,0,0,0,2.41,1,4.82,4.82,0,0,0,1.61-.28,5.6,5.6,0,0,0,1.53-.9l.31-.26v1.47l-.1,0a5.22,5.22,0,0,1-1.6,1,4.43,4.43,0,0,1-1.77.3,4.5,4.5,0,0,1-4.72-4.68,5,5,0,0,1,1.14-3.41,3.71,3.71,0,0,1,2.94-1.33,3.8,3.8,0,0,1,3,1.25,5,5,0,0,1,1,3.23l0,.2Z"/><path class="cls-5" d="M135.82,70.64a2.82,2.82,0,0,1,3.93-1.13.1.1,0,0,1,.08.06v1.5c-.08,0,0,0-.11,0-2.16-1.2-3.47.52-3.9,1.69v6H134.5V69.2h1.32Z"/><polygon class="cls-5" points="149.48 67.01 145.28 67.01 145.28 65.81 155.09 65.81 155.09 67.01 150.89 67.01 150.89 78.59 149.48 78.59 149.48 67.01"/><polygon class="cls-5" points="172.35 67.21 172.35 71.39 177.65 71.39 177.65 72.63 172.35 72.63 172.35 77.3 178.64 77.3 178.64 78.55 170.94 78.55 170.94 65.96 178.4 65.96 178.4 67.21 172.35 67.21"/><path class="cls-5" d="M182.47,70.46a3.4,3.4,0,0,1,2.64-1.26,3.27,3.27,0,0,1,2.48,1,4.09,4.09,0,0,1,.54.75l.18-.32a3.59,3.59,0,0,1,2.81-1.44,3.26,3.26,0,0,1,2.49,1,3.53,3.53,0,0,1,.94,2.59v5.63h-1.38V72.85a2.39,2.39,0,0,0-.6-1.7A2,2,0,0,0,191,70.5a2.65,2.65,0,0,0-2,1.06,2.94,2.94,0,0,0-.45.6v6.27h-1.39V72.85a2.35,2.35,0,0,0-.6-1.7A2,2,0,0,0,185,70.5a2.69,2.69,0,0,0-2,1.06,6,6,0,0,0-.47.6v6.27h-1.35v-9h1.35Z"/><path class="cls-4" d="M197.51,69.39h1.38v1.14a2.33,2.33,0,0,1,1.28-1,4.59,4.59,0,0,1,4.87.95,5.44,5.44,0,0,1,.05,6.87c-1.66,1.81-4.09,1.4-6.07.35l-.13-.08V82h-1.38ZM203.07,71c-1.14-.75-2.81-.58-4.15,1.23V76a3.31,3.31,0,0,0,4.41.78,3.62,3.62,0,0,0-.26-5.69"/><rect class="cls-4" x="85.33" y="59.31" width="26.09" height="1.51"/><rect class="cls-4" x="132.42" y="59.31" width="118.69" height="1.51"/><path class="cls-5" d="M158.84,77.22a3,3,0,0,0,2.28-1,3.42,3.42,0,0,0,1-2.41,3.52,3.52,0,0,0-1-2.42,2.9,2.9,0,0,0-2.28-1,3,3,0,0,0-2.3,1,3.44,3.44,0,0,0-.95,2.42,3.35,3.35,0,0,0,.95,2.41,3.07,3.07,0,0,0,2.3,1m0,1.3a4.43,4.43,0,0,1-3.3-1.33,4.67,4.67,0,0,1-1.31-3.38,4.6,4.6,0,0,1,1.31-3.38,4.4,4.4,0,0,1,3.3-1.34,4.32,4.32,0,0,1,3.29,1.34,4.65,4.65,0,0,1,1.32,3.38,4.72,4.72,0,0,1-1.32,3.38,4.43,4.43,0,0,1-3.29,1.33"/><path class="cls-5" d="M212.59,77.22a3,3,0,0,0,2.29-1,3.4,3.4,0,0,0,1-2.41,3.5,3.5,0,0,0-1-2.42,3.14,3.14,0,0,0-4.58,0,3.38,3.38,0,0,0-1,2.42,3.29,3.29,0,0,0,1,2.41,3.05,3.05,0,0,0,2.29,1m0,1.3a4.37,4.37,0,0,1-3.3-1.33A4.63,4.63,0,0,1,208,73.81a4.56,4.56,0,0,1,1.31-3.38,4.34,4.34,0,0,1,3.3-1.34,4.4,4.4,0,0,1,3.31,1.34,4.71,4.71,0,0,1,1.29,3.38,4.77,4.77,0,0,1-1.29,3.38,4.43,4.43,0,0,1-3.31,1.33"/><polygon class="cls-5" points="222.66 76.5 225.24 69.21 226.11 69.21 228.69 76.48 231.43 69.36 232.74 69.36 229.07 78.82 228.23 78.82 225.64 71.73 223.06 78.82 222.21 78.82 218.54 69.36 219.93 69.36 222.66 76.5"/><path class="cls-5" d="M240.51,72.89a2.8,2.8,0,0,0-.6-1.36,2.57,2.57,0,0,0-3.94.06,3.64,3.64,0,0,0-.66,1.3ZM235.14,74h0a3.26,3.26,0,0,0,1,2.38,3.22,3.22,0,0,0,2.4,1,5,5,0,0,0,1.62-.28,5.16,5.16,0,0,0,1.5-.9L242,76v1.47l-.07,0a5.54,5.54,0,0,1-1.64,1,4.48,4.48,0,0,1-1.78.3,4.58,4.58,0,0,1-3.39-1.3,4.64,4.64,0,0,1-1.31-3.38,5.14,5.14,0,0,1,1.13-3.41,4.1,4.1,0,0,1,6-.08A5,5,0,0,1,242,73.81V74Z"/><path class="cls-5" d="M246.22,70.55a2.83,2.83,0,0,1,3.92-1.12s.06,0,.1,0V71c-.12-.12,0,0-.12-.06-2.16-1.21-3.47.53-3.9,1.67v6H244.9V69.12h1.32Z"/></g></g></svg>