<svg xmlns="http://www.w3.org/2000/svg" height="101.88" weight="265.47" viewBox="0 0 265.47 101.88"><defs><style>.cls-1{fill:#0e6eb6;}.cls-1,.cls-2,.cls-3,.cls-5{fill-rule:evenodd;}.cls-2{fill:#f26329;}.cls-3{fill:#09a14a;}.cls-4,.cls-5{fill:#5d6366;}</style></defs><g id="Layer_2" data-name="Layer 2"><g id="Layer_1-2" data-name="Layer 1"><path class="cls-1" d="M5.88,51.72l-1.09-1.1a10.7,10.7,0,0,1,15.25,0l-1.11,1.09a9.16,9.16,0,0,0-13,0M9.72,55.4l-1-1a5.22,5.22,0,0,1,7.48,0l-1,1a3.9,3.9,0,0,0-2.7-1.12A3.8,3.8,0,0,0,9.72,55.4m2.71,2.68-1.95-1.9a3,3,0,0,1,1.95-.82,2.87,2.87,0,0,1,1.91.82Zm0-6.36A6.15,6.15,0,0,1,17,53.64l1.21-1.21a8,8,0,0,0-11.5,0l1.2,1.22a6.28,6.28,0,0,1,4.57-1.93"/><path class="cls-1" d="M5.22,59.36H19.47c-10.22,25.85-12,41-1.63,40.6C-4.91,101.3-2,79.19,5.22,59.36"/><path class="cls-2" d="M18.32,19.71C31.34-1.46,52.4-3.63,67.42,4.08c16.66,8.57,21.8,28.4,17.65,45.81C81.42,65.78,71,80.28,57.44,89.61a68.7,68.7,0,0,1-27.55,11A44.82,44.82,0,0,0,49.51,87.74,60.77,60.77,0,0,0,58,76c7.7-10.33,11.21-20.46,11.47-29.28.5-11.84-4.65-23.58-15.52-29-9.45-4.81-22.2-4.56-35.59,2"/><path class="cls-3" d="M8.5,43.6c10.59-21,32.42-22.47,45.28-13.38a25.21,25.21,0,0,1,10,15c1.76,7.73.48,15.78-2.42,23.37A58.42,58.42,0,0,1,49.51,87.74c-7.32,8.09-17.8,14.26-29,14.14A24.8,24.8,0,0,1,7.76,98.44C13,101,21.27,100.1,26.3,98.08c8.33-3.41,15-10.48,19.18-18.3,5.15-9.58,9.21-25,1-33.83C39,37.75,24.17,35,8.5,43.6"/><path class="cls-4" d="M257.5,55.63,260,48.4c-.31,0-.63,0-.9,0A5.72,5.72,0,0,0,254.87,50a7.9,7.9,0,0,0-2.18,4,3.25,3.25,0,0,0,.07,2.13,1.43,1.43,0,0,0,1.38.78,5.9,5.9,0,0,0,3.36-1.33m8-10.49L260.23,60h-4.29l.5-1.41a7.93,7.93,0,0,1-4.52,1.72,3.47,3.47,0,0,1-3.21-1.83,6.33,6.33,0,0,1-.42-4.68,11.13,11.13,0,0,1,4.17-6.61,12.78,12.78,0,0,1,8.26-2.57,20.06,20.06,0,0,1,4.75.51M248,44.9,242.67,60h-4.29L243.7,44.9Zm-2.92-4.21a2.87,2.87,0,0,1,2.69-2.31,1.76,1.76,0,0,1,1.43.67,1.87,1.87,0,0,1,.3,1.64,3.16,3.16,0,0,1-1,1.69,2.78,2.78,0,0,1-1.75.64,1.76,1.76,0,0,1-1.41-.64,2,2,0,0,1-.25-1.69M231.58,56.46l2.75-7.83a6.12,6.12,0,0,0-1.07-.08,6,6,0,0,0-3.89,1.3,5.61,5.61,0,0,0-2.08,3.25,2.94,2.94,0,0,0,.47,2.58,3.23,3.23,0,0,0,2.6,1,6.27,6.27,0,0,0,1.22-.18m11-19.17L234.7,59.8a30.66,30.66,0,0,1-5,.52q-3.85,0-5.68-2c-1.23-1.3-1.56-3.08-1.08-5.27a10.9,10.9,0,0,1,10.75-8.43,18.56,18.56,0,0,1,2.07.15l2.62-7.49ZM213.35,44.9l-.65,1.7a9.65,9.65,0,0,1,5.36-2,2.78,2.78,0,0,1,2.61,1.23,4.51,4.51,0,0,1,.25,3.42,10,10,0,0,1-.38,1.34L217.25,60H213l3.16-9a3.05,3.05,0,0,0,.26-.79c.3-1.49,0-2.22-.87-2.22s-2.37.76-4.09,2.32L208,60h-4.3l5.35-15.11Zm-6.1-7.61-8,22.72h-4.6l8-22.72Zm-17.81,0-8,22.72h-4.25l8-22.72Zm-19,18.34L173,48.4c-.3,0-.63,0-.9,0A5.66,5.66,0,0,0,167.84,50a7.78,7.78,0,0,0-2.19,4,2.94,2.94,0,0,0,.09,2.13,1.4,1.4,0,0,0,1.36.78,6,6,0,0,0,3.37-1.33m7.95-10.49L173.18,60H168.9l.5-1.41a8.08,8.08,0,0,1-4.51,1.72,3.53,3.53,0,0,1-3.24-1.83,6.54,6.54,0,0,1-.4-4.68,11.07,11.07,0,0,1,4.16-6.61,12.83,12.83,0,0,1,8.29-2.57,20,20,0,0,1,4.72.51m-18.57-3.42-1.3,3.18h3.16l-1.29,3.31h-3.17l-1.88,4.91a5.69,5.69,0,0,0-.36,1.16c-.31,1.35,0,2,.86,2a7.52,7.52,0,0,0,2.65-.92l-.87,4a9.13,9.13,0,0,1-3.88,1,3.44,3.44,0,0,1-3-1.39,4.7,4.7,0,0,1-.4-3.64c.13-.43.25-.87.4-1.31L153,48.21h-2.9l1.26-3.31h2.92l1.21-3.18ZM149.37,44.9,144,60h-4.27l5.32-15.11Zm-3-4.21a3,3,0,0,1,1-1.64,2.8,2.8,0,0,1,1.73-.67,1.76,1.76,0,0,1,1.44.67,2.08,2.08,0,0,1,.3,1.64,3.43,3.43,0,0,1-1,1.69,2.87,2.87,0,0,1-1.73.64,1.7,1.7,0,0,1-1.42-.64,2,2,0,0,1-.29-1.69M132.5,63.35c.14-.7-.44-1.22-1.7-1.49L129,61.43a4.6,4.6,0,0,0-1.7.43A1.87,1.87,0,0,0,126,63.2c-.22,1.06.73,1.58,2.85,1.58a8.16,8.16,0,0,0,2.63-.33,1.51,1.51,0,0,0,1-1.1m-.19-10c1.55,0,2.55-1.1,3-3.26a2,2,0,0,0-.17-1.57,1.56,1.56,0,0,0-1.34-.58c-1.57,0-2.6,1.09-3.11,3.32-.29,1.36.22,2.09,1.58,2.09m10.33-8.45-1.15,3.31h-2.28a6.11,6.11,0,0,1,0,2.41,6.8,6.8,0,0,1-2.49,3.92,7.43,7.43,0,0,1-4.75,1.6,10.27,10.27,0,0,0-2.05.14.83.83,0,0,0-.73.68c-.05.18,0,.34.28.54a18.54,18.54,0,0,0,3,.64c1.77.31,3,.82,3.58,1.62a3.44,3.44,0,0,1,.56,3c-.71,3.26-3.55,4.92-8.51,4.92a9.13,9.13,0,0,1-4.9-1,2.42,2.42,0,0,1-1.14-2.73c.33-1.44,1.75-2.6,4.29-3.37A2.46,2.46,0,0,1,125,57.73q.48-2.1,3.51-2.78A3.93,3.93,0,0,1,127,50.59a7,7,0,0,1,2.68-4,7.7,7.7,0,0,1,5-1.7Zm-17,0L120.25,60H116l5.31-15.11Zm-3-4.21a3.09,3.09,0,0,1,1-1.64,2.82,2.82,0,0,1,1.72-.67,1.81,1.81,0,0,1,1.44.67,1.86,1.86,0,0,1,.27,1.64,3.39,3.39,0,0,1-1,1.69,2.78,2.78,0,0,1-1.76.64,1.7,1.7,0,0,1-1.39-.64,2.2,2.2,0,0,1-.31-1.69m-18.82.38L98.51,56.21h4.3A8,8,0,0,0,108.57,54a10.59,10.59,0,0,0,3.18-5.67,6.17,6.17,0,0,0-.83-5.21,5.8,5.8,0,0,0-4.9-2Zm-3.24-3.78h7.18c3.62,0,6.16,1.05,7.63,3.08s1.83,4.73,1.13,8a15.45,15.45,0,0,1-4.76,8.34,11.54,11.54,0,0,1-8,3.32H92.57Z"/><path class="cls-5" d="M94.38,75.54h2.47a3.48,3.48,0,0,0,2.25-.72,2.32,2.32,0,0,0,.79-1.88A2.39,2.39,0,0,0,99.1,71a3.3,3.3,0,0,0-2.25-.69H94.38Zm0,1.37v5.78H92.92V69h3.61a5.87,5.87,0,0,1,3.59,1,3.63,3.63,0,0,1,1.33,2.94,3.54,3.54,0,0,1-1.33,2.91,5.65,5.65,0,0,1-3.59,1.06Z"/><path class="cls-5" d="M107.34,81.35a3.18,3.18,0,0,0,2.4-1,3.57,3.57,0,0,0,1-2.54,3.45,3.45,0,0,0-1-2.53,3.15,3.15,0,0,0-2.4-1.08,3.1,3.1,0,0,0-2.43,1.08,3.45,3.45,0,0,0-1,2.53,3.57,3.57,0,0,0,1,2.54,3.13,3.13,0,0,0,2.43,1m0,1.36a4.55,4.55,0,0,1-3.47-1.38,5.29,5.29,0,0,1,0-7.13,4.93,4.93,0,0,1,6.92,0,5.35,5.35,0,0,1,0,7.13,4.53,4.53,0,0,1-3.45,1.38"/><polygon class="cls-5" points="117.91 80.23 120.61 72.61 121.5 72.61 124.25 80.22 127.13 72.75 128.47 72.75 124.61 82.7 123.73 82.7 121.03 75.24 118.29 82.7 117.42 82.7 113.57 72.75 115.04 72.75 117.91 80.23"/><path class="cls-5" d="M136.65,76.55a3.07,3.07,0,0,0-.64-1.42,2.56,2.56,0,0,0-2.12-.93,2.68,2.68,0,0,0-2,1,4.6,4.6,0,0,0-.69,1.36ZM131,77.73h0a3.44,3.44,0,0,0,1.05,2.5,3.4,3.4,0,0,0,2.53,1.07,4.83,4.83,0,0,0,1.7-.31,6,6,0,0,0,1.6-.94l.32-.27v1.55l-.09,0a5.6,5.6,0,0,1-1.69,1,4.68,4.68,0,0,1-1.85.31,4.73,4.73,0,0,1-5-4.91,5.28,5.28,0,0,1,1.19-3.58,3.89,3.89,0,0,1,3.09-1.4,4,4,0,0,1,3.19,1.31,5.27,5.27,0,0,1,1.1,3.4l0,.2Z"/><path class="cls-5" d="M142.65,74.2A3,3,0,0,1,146.77,73a.09.09,0,0,1,.09.06v1.57c-.09,0,0,0-.12,0-2.26-1.26-3.64.55-4.09,1.78v6.26h-1.39v-10h1.39Z"/><polygon class="cls-5" points="157 70.38 152.59 70.38 152.59 69.12 162.89 69.12 162.89 70.38 158.48 70.38 158.48 82.54 157 82.54 157 70.38"/><polygon class="cls-5" points="181.01 70.58 181.01 74.98 186.59 74.98 186.59 76.28 181.01 76.28 181.01 81.19 187.63 81.19 187.63 82.5 179.53 82.5 179.53 69.28 187.37 69.28 187.37 70.58 181.01 70.58"/><path class="cls-5" d="M191.64,74a3.56,3.56,0,0,1,2.77-1.33A3.44,3.44,0,0,1,197,73.74a4.72,4.72,0,0,1,.57.78l.19-.32a3.76,3.76,0,0,1,2.95-1.52,3.43,3.43,0,0,1,2.62,1.06,3.73,3.73,0,0,1,1,2.72v5.92h-1.45V76.52a2.51,2.51,0,0,0-.63-1.79,2.07,2.07,0,0,0-1.67-.68,2.76,2.76,0,0,0-2.1,1.11,2.92,2.92,0,0,0-.48.63v6.59h-1.45V76.52a2.43,2.43,0,0,0-.64-1.79,2.09,2.09,0,0,0-1.66-.68,2.81,2.81,0,0,0-2.12,1.11,6.6,6.6,0,0,0-.5.63v6.59h-1.41v-9.5h1.41Z"/><path class="cls-4" d="M207.44,72.88h1.45v1.2A2.4,2.4,0,0,1,210.24,73a4.78,4.78,0,0,1,5.11,1,5.69,5.69,0,0,1,.05,7.21c-1.74,1.9-4.29,1.47-6.37.37l-.14-.08v4.63h-1.45Zm5.84,1.73c-1.2-.78-2.95-.6-4.36,1.29v3.87c1.47,1.58,3.38,1.74,4.63.82a3.81,3.81,0,0,0-.27-6"/><rect class="cls-4" x="89.62" y="62.29" width="27.4" height="1.58"/><rect class="cls-4" x="139.08" y="62.29" width="124.66" height="1.58"/><path class="cls-5" d="M166.83,81.1a3.15,3.15,0,0,0,2.4-1,3.59,3.59,0,0,0,1-2.52,3.68,3.68,0,0,0-1-2.55,3,3,0,0,0-2.4-1,3.13,3.13,0,0,0-2.42,1,3.57,3.57,0,0,0-1,2.55,3.49,3.49,0,0,0,1,2.52,3.24,3.24,0,0,0,2.42,1m0,1.36a4.62,4.62,0,0,1-3.47-1.39,5.28,5.28,0,0,1,0-7.1,4.6,4.6,0,0,1,3.47-1.41A4.51,4.51,0,0,1,170.28,74a5.23,5.23,0,0,1,0,7.1,4.62,4.62,0,0,1-3.45,1.39"/><path class="cls-5" d="M223.28,81.1a3.23,3.23,0,0,0,2.41-1,3.57,3.57,0,0,0,1-2.52,3.66,3.66,0,0,0-1-2.55,3.3,3.3,0,0,0-4.81,0,3.52,3.52,0,0,0-1,2.55,3.43,3.43,0,0,0,1,2.52,3.21,3.21,0,0,0,2.4,1m0,1.36a4.58,4.58,0,0,1-3.47-1.39,5.28,5.28,0,0,1,0-7.1,4.56,4.56,0,0,1,3.47-1.41A4.64,4.64,0,0,1,226.76,74a5.34,5.34,0,0,1,0,7.1,4.66,4.66,0,0,1-3.48,1.39"/><polygon class="cls-5" points="233.86 80.34 236.57 72.69 237.48 72.69 240.19 80.33 243.07 72.84 244.45 72.84 240.59 82.78 239.71 82.78 236.99 75.34 234.28 82.78 233.39 82.78 229.53 72.84 230.99 72.84 233.86 80.34"/><path class="cls-5" d="M252.61,76.55a3,3,0,0,0-.64-1.42,2.7,2.7,0,0,0-4.13.06,3.65,3.65,0,0,0-.69,1.36ZM247,77.73h0a3.44,3.44,0,0,0,1.05,2.5,3.39,3.39,0,0,0,2.51,1.07,4.88,4.88,0,0,0,1.7-.31,5.22,5.22,0,0,0,1.58-.94l.36-.27v1.55l-.08,0a5.7,5.7,0,0,1-1.71,1,4.87,4.87,0,0,1-6.82-4.6,5.43,5.43,0,0,1,1.19-3.58,4.32,4.32,0,0,1,6.28-.09,5.24,5.24,0,0,1,1.12,3.4v.2Z"/><path class="cls-5" d="M258.6,74.1a3,3,0,0,1,4.11-1.18c.05,0,.07,0,.11,0v1.62c-.12-.12,0,0-.12-.07-2.27-1.26-3.65.57-4.1,1.76v6.26h-1.39V72.6h1.39Z"/></g></g></svg>