<svg xmlns="http://www.w3.org/2000/svg" viewBox="0 0 50 50"><defs><style>.cls-1{fill:none;}.cls-2{fill:#00aeff;}</style></defs><g id="Layer_2" data-name="Layer 2"><g id="Object"><path class="cls-1" d="M13.49,13.28a3.08,3.08,0,0,1,4.35,0l6.45,6.44a1,1,0,0,0,.05-.16,5.23,5.23,0,0,0-.07-3,4.13,4.13,0,0,0-1-1.6l-10-10a4.2,4.2,0,0,0-1.6-1,5,5,0,0,0-2-.25A6.47,6.47,0,0,0,5.58,5.58a6.75,6.75,0,0,0-1.76,3,5.31,5.31,0,0,0,.08,3,4.2,4.2,0,0,0,1,1.6l10,10a4.13,4.13,0,0,0,1.6,1,5,5,0,0,0,2,.25,5.83,5.83,0,0,0,1.22-.23l-6.44-6.44a3.09,3.09,0,0,1,0-4.36Z"/><path class="cls-1" d="M35,35.18a3.08,3.08,0,0,1-4.35,0l-4.9-4.9s0,.11-.05.16a5.23,5.23,0,0,0,.07,3,4.13,4.13,0,0,0,1,1.6l10,10a4.2,4.2,0,0,0,1.6,1,5.06,5.06,0,0,0,2,.25,6.72,6.72,0,0,0,5.84-5,5.23,5.23,0,0,0-.07-3,4.2,4.2,0,0,0-1-1.6l-10-10a4.13,4.13,0,0,0-1.6-1,5.23,5.23,0,0,0-2-.25,6,6,0,0,0-1.22.23l4.9,4.9a3.08,3.08,0,0,1,0,4.35Z"/><path class="cls-2" d="M24.29,19.72l.44.45h0l2.34,2.34a9.68,9.68,0,0,0,1.07-3.77,8.72,8.72,0,0,0-.45-3.4,7.76,7.76,0,0,0-1.86-3l-10-10a7.64,7.64,0,0,0-3-1.86A8.87,8.87,0,0,0,7.7.3,10.29,10.29,0,0,0,3,3,10.11,10.11,0,0,0,0,9.43a8.72,8.72,0,0,0,.44,3.4,7.79,7.79,0,0,0,1.87,3l10,10a7.76,7.76,0,0,0,3,1.86,8.84,8.84,0,0,0,5.12.17,9.9,9.9,0,0,0,2.06-.78l-2.35-2.35h0l-.45-.44a5.83,5.83,0,0,1-1.22.23,5,5,0,0,1-2-.25,4.13,4.13,0,0,1-1.6-1l-10-10a4.2,4.2,0,0,1-1-1.6,5.31,5.31,0,0,1-.08-3,6.75,6.75,0,0,1,1.76-3A6.47,6.47,0,0,1,9.67,3.65a5,5,0,0,1,2,.25,4.2,4.2,0,0,1,1.6,1l10,10a4.13,4.13,0,0,1,1,1.6,5.23,5.23,0,0,1,.07,3A1,1,0,0,1,24.29,19.72Z"/><path class="cls-2" d="M25.71,30.28l-2.79-2.79a9.68,9.68,0,0,0-1.07,3.77,8.54,8.54,0,0,0,.45,3.4,7.76,7.76,0,0,0,1.86,3l10,10a7.79,7.79,0,0,0,3,1.87,8.84,8.84,0,0,0,5.12.16A10.27,10.27,0,0,0,47,47a10.11,10.11,0,0,0,3-6.42,8.54,8.54,0,0,0-.45-3.4,7.64,7.64,0,0,0-1.86-3l-10-10a7.76,7.76,0,0,0-3-1.86,8.84,8.84,0,0,0-5.12-.17,9.94,9.94,0,0,0-2.06.79l2.8,2.79a6,6,0,0,1,1.22-.23,5.23,5.23,0,0,1,2,.25,4.13,4.13,0,0,1,1.6,1l10,10a4.2,4.2,0,0,1,1,1.6,5.23,5.23,0,0,1,.07,3,6.72,6.72,0,0,1-5.84,5,5.06,5.06,0,0,1-2-.25,4.2,4.2,0,0,1-1.6-1l-10-10a4.13,4.13,0,0,1-1-1.6,5.23,5.23,0,0,1-.07-3C25.67,30.39,25.7,30.33,25.71,30.28Z"/><path class="cls-2" d="M27.48,22.92l-.4-.41-2.34-2.34h0l-.44-.45-6.45-6.44a3.08,3.08,0,0,0-4.35,0l-.21.21a3.09,3.09,0,0,0,0,4.36l6.44,6.44.45.44h0l2.35,2.35.4.4,2.79,2.79,4.9,4.9a3.08,3.08,0,0,0,4.35,0l.22-.22a3.08,3.08,0,0,0,0-4.35l-4.9-4.9Z"/></g></g></svg>