<svg xmlns="http://www.w3.org/2000/svg" viewBox="0 0 295.35 295.35"><defs><style>.cls-1{fill:#fff;}.cls-2{fill:#f05a28;}.cls-3{fill:#88c65e;}.cls-4{fill:#0d9a49;}.cls-5{fill:#006838;}.cls-6{fill:#231f20;}</style></defs><g id="Layer_2" data-name="Layer 2"><g id="Layer_1-2" data-name="Layer 1"><path class="cls-1" d="M147.51,0C70.55,0,5.52,60,.33,137.84A147.6,147.6,0,0,0,244.82,258.69a146.61,146.61,0,0,0,50.05-101.27C300.28,76.22,238.6,5.76,157.4.36q-5-.33-9.89-.33"/><path class="cls-2" d="M147.8,286.45q-4.68,0-9.41-.32A138.82,138.82,0,0,1,9.1,138.42C14.18,62.05,80.47,4.08,156.82,9.13S291.18,80.47,286.11,156.84A138.83,138.83,0,0,1,147.8,286.45m-.29-275.17c-71.09,0-131.17,55.35-135.95,127.3A136.35,136.35,0,0,0,237.41,250.23a135.49,135.49,0,0,0,46.24-93.55c5-75-52-140.11-127-145.1Q152.06,11.28,147.51,11.28Z"/><path class="cls-2" d="M147.67,295.35C66.25,295.35,0,229.1,0,147.67S66.25,0,147.67,0,295.35,66.25,295.35,147.67,229.1,295.35,147.67,295.35m0-294.23C66.86,1.12,1.12,66.87,1.12,147.67S66.86,294.23,147.67,294.23s146.55-65.75,146.55-146.56S228.48,1.12,147.67,1.12Z"/><path class="cls-2" d="M62.57,147.36c0-45.25,38.13-81.94,85.15-81.94s85.14,36.69,85.14,81.94a79.24,79.24,0,0,1-10.24,39,80.91,80.91,0,0,0,12-42.42c0-46.18-38.91-83.63-86.9-83.63S60.82,97.77,60.82,144a80.91,80.91,0,0,0,12,42.42,79.25,79.25,0,0,1-10.25-39"/><path class="cls-3" d="M147.72,79.54a50,50,0,0,0-14.87,35.15,49.21,49.21,0,0,0,14.87,34.93,49.21,49.21,0,0,0,14.87-34.93,50,50,0,0,0-14.87-35.15"/><path class="cls-4" d="M98.17,100.07a50,50,0,0,0,14.34,35.36,49.2,49.2,0,0,0,35.21,14.19,49.21,49.21,0,0,0-14.18-35.21,50.05,50.05,0,0,0-35.37-14.34"/><path class="cls-5" d="M77.64,149.62a50,50,0,0,0,35.16,14.86,49.18,49.18,0,0,0,34.92-14.86,49.17,49.17,0,0,0-34.92-14.87,50,50,0,0,0-35.16,14.87"/><path class="cls-4" d="M197.27,100.07a50.05,50.05,0,0,0-35.37,14.34,49.2,49.2,0,0,0-14.18,35.21,49.2,49.2,0,0,0,35.21-14.19,50,50,0,0,0,14.34-35.36"/><path class="cls-5" d="M217.8,149.62a50,50,0,0,0-35.15-14.87,49.18,49.18,0,0,0-34.93,14.87,49.19,49.19,0,0,0,34.93,14.86,50,50,0,0,0,35.15-14.86"/><path class="cls-2" d="M164.88,168.09l-14.67,17.19a3.09,3.09,0,0,1-4.85,0l-14.67-17.19c-3.16-3.71-2.09-6.74,2.38-6.74H162.5c4.47,0,5.54,3,2.38,6.74"/><path class="cls-2" d="M156.69,149.72a8.91,8.91,0,1,1-8.9-8.91,8.91,8.91,0,0,1,8.9,8.91"/><path class="cls-2" d="M177.73,186.25c0,4.34-5.69,7.84-12.71,7.84s-18.68-7.84-18.68-7.84S158,178.41,165,178.41s12.71,3.51,12.71,7.84"/><path class="cls-2" d="M117.83,186.25c0-4.33,5.7-7.84,12.73-7.84s18.67,7.84,18.67,7.84-11.65,7.84-18.67,7.84-12.73-3.5-12.73-7.84"/><path class="cls-4" d="M111.05,203.83v2.32H109v11.56h-2.92V206.15h-2.85v11.56h-2.94v-4.8H98.06v.14a3.48,3.48,0,0,1-1.13,2.7,4.81,4.81,0,0,1-3.36,1,8.32,8.32,0,0,1-2.81-.46v-2.68a5.72,5.72,0,0,0,2.67.7c1.21,0,1.82-.58,1.82-1.74a1.36,1.36,0,0,0-.42-1,2.33,2.33,0,0,0-1.55-.4h-.84v-2.44h.64c1.14,0,1.71-.42,1.71-1.28s-.48-1.24-1.44-1.24a5.11,5.11,0,0,0-2.18.52v-2.63a6.71,6.71,0,0,1,2.4-.39,4.62,4.62,0,0,1,3.06.9,3.34,3.34,0,0,1,.52,4.31,2.81,2.81,0,0,1-1.59,1,3.14,3.14,0,0,1,1.47.6h3.24v-4.4H98.68v-2.32Z"/><path class="cls-4" d="M116.14,215.52a4.82,4.82,0,0,1-3.53-1.49,6.74,6.74,0,0,1-1.79-4.1c2.15-.3,3.23-1,3.23-2.15a2.2,2.2,0,0,0-.6-1.63h-3.64v-2.32h14.35v2.32h-2.07v11.56h-2.91v-3.52a2.46,2.46,0,0,1-1.18,1,4.51,4.51,0,0,1-1.86.37m.49-2.57h0a2.48,2.48,0,0,0,1.86-.68,2.76,2.76,0,0,0,.69-2.05v-4.07h-2.69a3.19,3.19,0,0,1,.43,1.78,3.23,3.23,0,0,1-.75,2.2,4.39,4.39,0,0,1-2,1.25A2.23,2.23,0,0,0,116.63,213Z"/><path class="cls-4" d="M114.48,221.64v-3.19a14.49,14.49,0,0,0,2.79,2.22,6,6,0,0,0,3.08,1,1.57,1.57,0,0,0,1-.28.93.93,0,0,0,.35-.75.7.7,0,0,0-.35-.62,1.65,1.65,0,0,0-.93-.23,5,5,0,0,0-2.2.56v-2.53a7.09,7.09,0,0,1,2.26-.37,4.65,4.65,0,0,1,3,.86,2.84,2.84,0,0,1,1.07,2.33,3.17,3.17,0,0,1-1.07,2.44,4.33,4.33,0,0,1-3,1,7.53,7.53,0,0,1-3.31-.76,12.09,12.09,0,0,1-2.67-1.66"/><path class="cls-4" d="M133,210l1.16,1.68a6.16,6.16,0,0,1-5,2.61,4.5,4.5,0,0,1-3.16-1.1,4.14,4.14,0,0,1-1.2-3.23v-3.8h-1.86v-2.32H132v2.32h-3.74l4.21,4.4A3,3,0,0,0,133,210m-5.4-2.29h0v2.38a1.73,1.73,0,0,0,.57,1.42,2.21,2.21,0,0,0,1.48.48,3.2,3.2,0,0,0,1.71-.48Z"/><path class="cls-4" d="M130.78,206.15v-2.32h13.34v2.32h-2.07v11.56h-2.86v-5.4h-3.26v2.52h-2.46l-.75-1.65a5.82,5.82,0,0,1-.6-1.9,1.11,1.11,0,0,1,.93-1.14v-4Zm8.41,0h-3.26V210h3.26Z"/><polygon class="cls-4" points="142.88 206.15 142.88 203.83 149.93 203.83 149.93 206.15 147.86 206.15 147.86 217.71 144.94 217.71 144.94 206.15 142.88 206.15"/><path class="cls-4" d="M148.69,203.83h12.18v2.32H158.8v11.56h-2.94v-6.53h-2.58a.7.7,0,0,0-.54.18,1.17,1.17,0,0,0-.17.75,7.42,7.42,0,0,0,.17,1.42h-2.32a5.11,5.11,0,0,1-.7-2.69,1.88,1.88,0,0,1,.58-1.46,2.48,2.48,0,0,1,1.69-.52h3.87v-2.71h-7.17Z"/><path class="cls-4" d="M173.34,209.89v-6.06h4.92v2.32h-2.07v11.56h-2.85v-5.5h-3.17v2.58h-2.52l-.75-1.59a4.67,4.67,0,0,1-.55-1.82,1.24,1.24,0,0,1,1-1.34v-3a.85.85,0,0,0-1-1,2.43,2.43,0,0,0-1.12.29v-2.26a3.83,3.83,0,0,1,1.78-.41q3.17,0,3.16,3v3.16Z"/><polygon class="cls-4" points="177.02 206.15 177.02 203.83 184.07 203.83 184.07 206.15 182 206.15 182 217.71 179.09 217.71 179.09 206.15 177.02 206.15"/><path class="cls-4" d="M184.17,212.42v-2.28h1.58c1.26,0,1.9-.52,1.9-1.57v-2.42h-4.82v-2.32h9.86v2.32h-2.15v2.59a3.82,3.82,0,0,1-.69,2.32,3.1,3.1,0,0,1-2,1.19,1.25,1.25,0,0,1-.31,0l4.23,5.42h-3.51Z"/><path class="cls-4" d="M205.27,203.83v2.32H203.2v11.56h-2.94v-7.44h-1.44a3.23,3.23,0,0,0-2.15.63,2.31,2.31,0,0,0-.73,1.83c0,1.68.72,2.52,2.17,2.52l.35,0v2.42c-.33,0-.6,0-.82,0a4.33,4.33,0,0,1-3.42-1.38,5.23,5.23,0,0,1-1.22-3.6,4.49,4.49,0,0,1,1.45-3.5,6.21,6.21,0,0,1,4.28-1.3h1.53v-1.76h-8.81v-2.32Z"/><path class="cls-6" d="M54.34,64.61h0a2.39,2.39,0,0,0,1.79-.77A2.49,2.49,0,0,0,56.91,62a2.52,2.52,0,0,0-.79-1.81,2.54,2.54,0,0,0-3.62,0,2.41,2.41,0,0,0-.73,1.81,2.6,2.6,0,0,0,.82,1.78,2.56,2.56,0,0,0,1.75.77"/><path class="cls-6" d="M234.45,66.26l.22.2,2.26-2.54-.1-.09c-.32-.29-2.62-2.39-3.72-3.41-.42-.38-.59-.54-.67-.6h0l-1.26-1.22a124.5,124.5,0,0,0-12.44-10.37l0,0-1.27-.83c-2.69-1.91-5.48-3.73-8.28-5.39l-1.1-.71,0,0c-.89-.52-1.8-1-2.8-1.56l-.52-6.32a6.44,6.44,0,0,0-3.57-5.47,14.28,14.28,0,0,0-2.16-.85l-.1,0-1.71,3.27.17,0a6.66,6.66,0,0,1,1.86.63,2.86,2.86,0,0,1,1.6,2.56l.41,4.09c-.82-.41-1.67-.83-2.51-1.22l-.25-.13h0A119.61,119.61,0,0,0,162.28,26l-.12,0-.41,3.37.13,0c1.27.15,2.53.34,3.7.52l-1.14,7.66-5.13-.77a4.76,4.76,0,0,0-1.9-1.41,4.5,4.5,0,0,0,2.27-1.22,5.06,5.06,0,0,0,1.36-2.9A5.05,5.05,0,0,0,160,27a7.18,7.18,0,0,0-4.52-2.16,10,10,0,0,0-3.76.11l-.08,0-.59,3.9.2-.06a7.68,7.68,0,0,1,3.44-.31c1.68.26,2.38,1.1,2.16,2.57s-1.3,2.14-3.27,1.85l-1.15-.18-.55,3.66,1.39.21c2.29.35,3.29,1.35,3,3.05A2.77,2.77,0,0,1,155,41.84a3.74,3.74,0,0,1-2.42.38,9.15,9.15,0,0,1-4-1.73l-.17-.13-.61,4,.08.05a12.19,12.19,0,0,0,4.27,1.45,7.53,7.53,0,0,0,5.49-.9,5.81,5.81,0,0,0,2.48-4.12l.05-.32,3.68.56-1.24,8.27,4.16.63,2.86-19.39c1.71.33,3.37.67,4.94,1l-2.89,19.09,4.14.62,2.82-18.68a119.57,119.57,0,0,1,11.79,3.89l-1.6,4.08c-.66,1.72-2,2.15-4.08,1.34l-2.37-.93-1.22,3.15,3,11.08,4.7,1.83L185.82,46l.24,0a5.38,5.38,0,0,0,4-.39,6,6,0,0,0,2.63-3.23l1.62-4.25c1.85.8,3.76,1.69,5.81,2.72l-9,17.35-.06.11,3.68,1.92,9.06-17.46h0c.85.46,1.72.94,2.58,1.43l0,0,.4.21c1.39.81,2.8,1.68,4.3,2.65l-4.21,6.06c-.62,1-1.34,1.15-2.22.57a3.67,3.67,0,0,1-1.23-1.31l-.1-.19-1.91,2.92,0,.08.06.07a8.17,8.17,0,0,0,2.1,1.95,4.4,4.4,0,0,0,6.66-1.53l4.13-6.49c2.57,1.77,5.13,3.71,7.63,5.74a5.12,5.12,0,0,1-1.21,2.75c-1.25,1.4-3.38,1.14-6.33-.74l-.11-.07-.07.1a11.09,11.09,0,0,0-2.27,6.87,7.7,7.7,0,0,0,2.64,5.56A7.59,7.59,0,0,0,217.33,71a4.9,4.9,0,0,0,2.3.22l-3.93,4.4,3.13,2.78,12.94-14.52,2.56,2.27Zm-10.59.24a4.55,4.55,0,0,1-3.14,1.74A4.38,4.38,0,0,1,217.55,67a4.44,4.44,0,0,1-1.5-2.5,4.19,4.19,0,0,1,.35-2.62c3,1.25,5.42.82,7.29-1.27a7.29,7.29,0,0,0,1.57-2.81c1.19,1,2.35,2.11,3.45,3.15Z"/><path class="cls-6" d="M269.9,153.62a125.56,125.56,0,0,0-9.33-52h0l-.19-.42c-.43-1-.84-2-1.26-2.94L262.57,93a6.44,6.44,0,0,0,.5-6.52,13.32,13.32,0,0,0-1.19-2l-.06-.09-3.35,1.55.11.13a7.19,7.19,0,0,1,1.1,1.63,2.9,2.9,0,0,1-.29,3l-2.16,3.49c-.42-.85-.84-1.68-1.24-2.47l-.15-.29h0a124.24,124.24,0,0,0-15-22.54l-.09-.1L238.15,71l.08.1c2,2.36,3.93,4.89,5.8,7.52a4.47,4.47,0,0,1-1.5,1.27c-1.65.88-3.56-.09-5.68-2.89l-.08-.1-.1.07a11,11,0,0,0-4.5,5.65,7.72,7.72,0,0,0,.55,6.14,7.45,7.45,0,0,0,2,2.47,5.11,5.11,0,0,0,2.08,1L231.63,95l2,3.69,17.17-9.15,1.67,3.14.16-.1c.64,1.24,1.27,2.47,1.85,3.67l-17.82,8.07-.12.06,1.74,3.76L256.18,100a122.15,122.15,0,0,1,6.42,18.49l-3.4.93-3.5-11.65,0-.13-3.44,1,0,.12a6.44,6.44,0,0,1,.18,3.89,3.14,3.14,0,0,1-2.19,2,2.88,2.88,0,0,1-2.51-.25,4,4,0,0,1-1.53-2.28,7.09,7.09,0,0,1-.15-3.57l0-.21-3.72,1.12v.09a11.53,11.53,0,0,0,.49,4.31,7.24,7.24,0,0,0,3.05,4.29,5.77,5.77,0,0,0,4.9.52,5,5,0,0,0,3.53-3l1.42,4.75L243.94,124l-.13,0,1.18,3.91,0,.12,18.56-5.57A124.44,124.44,0,0,1,266,137.75l-5,.57-.72-6.3a3.72,3.72,0,0,0-1.13-2.51,3.08,3.08,0,0,0-2.37-.63,8.74,8.74,0,0,0-4.08,1.56l-.06,0,.38,3.37.16,0a10.59,10.59,0,0,1,2.36-.6,1.8,1.8,0,0,1,1.09.11,1,1,0,0,1,.36.74l.53,4.66-10.85,1.23-.13,0,.47,4.18L266.33,142l0,.27c.12,2.1.19,4.32.2,6.6l-19.6.92.16,4.18,19.39-.7v.29c0,.07,0,.21,0,.38v.24h0l-.11,2.66,3.39.13.09-2.22v-.48c0-.29,0-.51,0-.6M242.44,89.21a4.56,4.56,0,0,1-3.54.54,4.94,4.94,0,0,1-3.08-5.15,4.19,4.19,0,0,1,1.23-2.33c2.34,2.2,4.81,2.65,7.28,1.33a6.38,6.38,0,0,0,2-1.63c.79,1.18,1.58,2.43,2.37,3.73Z"/><path class="cls-6" d="M137.82,29l5.15-.55L142.61,25l-5.11.55A119.75,119.75,0,0,0,97,36.37l-.12.06,1.43,3.08.12-.06c1.83-.85,3.79-1.69,6.16-2.63l5.06-1.88c1.46-.51,2.81-.94,4.11-1.34L114.86,37l-11.5,4-.12,0,1.18,3.4.12,0a6.41,6.41,0,0,1,3.89-.34,3.16,3.16,0,0,1,2.09,2.1,2.89,2.89,0,0,1-.15,2.52,4,4,0,0,1-2.22,1.63,7.14,7.14,0,0,1-3.55.3l-.21,0,1.27,3.68h.26a11.37,11.37,0,0,0,4.11-.69,7.25,7.25,0,0,0,4.17-3.22,5.83,5.83,0,0,0,.31-4.92,5.06,5.06,0,0,0-3.15-3.4L116,40.41l4,11.66,0,.12,4-1.38-6.37-18.35a116.59,116.59,0,0,1,15.41-3l.63,5.1-6.27.9A3.71,3.71,0,0,0,125,36.67a3,3,0,0,0-.56,2.39,8.72,8.72,0,0,0,1.68,4l0,.06,3.35-.49-.06-.15a10.84,10.84,0,0,1-.67-2.34,1.7,1.7,0,0,1,.08-1.09,1,1,0,0,1,.72-.39l4.65-.67,1.56,10.81,0,.13,4.17-.6L137.39,29l.14,0,.29,0"/><path class="cls-6" d="M86.6,45.84l1.09-.67,2.42-1.48-1.78-2.9-2.4,1.47c-.6.36-1.19.73-1.79,1.11L82.57,41a5.79,5.79,0,0,0-4.42-2.64h-.1A7.5,7.5,0,0,0,73.29,40a7.24,7.24,0,0,0-2.89,4.17,6,6,0,0,0,1.32,5l.62.82,3.37-2.52-.53-.72c-1.14-1.52-1-2.76.33-3.77a2.55,2.55,0,0,1,2-.57,2.93,2.93,0,0,1,1.83,1.25l1.41,1.88a124.19,124.19,0,0,0-33.33,33.1l-.36.43,0,0a126.87,126.87,0,0,0-9.93,17.46l-.08,0-1,2.32c-.81,1.82-1.58,3.69-2.3,5.53L32.75,107l.09,0c-.85,2.35-1.63,4.72-2.31,7l-.25.58h.07c-.28,1-.55,2-.79,2.88l0,.12,3.29.87,0-.12c.24-.93.51-1.88.8-2.89l8.16,2.11A4.91,4.91,0,0,1,45.06,120a5.75,5.75,0,0,1,.35,4.27,4.36,4.36,0,0,1-1.28,2.29,2.12,2.12,0,0,1-2,.43c-1.53-.39-2-1.69-1.4-4l.48-1.84-3.55-.92-.4,1.55c-.59,2.26-1.6,3.15-3.11,2.76a2.33,2.33,0,0,1-1.69-1.38,4.51,4.51,0,0,1,0-2.83l0-.19-3.43-.89L28.61,122l-.14,0,0,.13a127.2,127.2,0,0,0-3,22.74c-.15,3.5-.15,7,0,10.53v.13l3.4-.15v-.12c-.08-1.79-.1-3.75-.09-6l5.6.46c3.72.3,6.08-.86,7-3.48l6.28,6.31.44-5.35-7.3-7.3,7.71.64h.13l.35-4.2L29.71,134.7c.33-2.63.74-5.27,1.22-7.85a3.44,3.44,0,0,0,2.43,1.89,3.45,3.45,0,0,0,3.09-.49,5,5,0,0,0,1.57-2,6,6,0,0,0,.54,2.86,4.11,4.11,0,0,0,2.81,2.14,5.09,5.09,0,0,0,4.61-.93,8.37,8.37,0,0,0,2.85-4.68,8.9,8.9,0,0,0,.2-3.65A6.47,6.47,0,0,0,48,119.21l4.58,1.18,1-4-18.72-4.86c.7-2.15,1.47-4.28,2.28-6.35l18.06,7.31.12,0,1.6-3.86-18.1-7.58a125.74,125.74,0,0,1,6.63-13l4.42,2.51-3.12,5.52a3.68,3.68,0,0,0-.56,2.69,3,3,0,0,0,1.55,1.9,8.69,8.69,0,0,0,4,1.14h.24l1.67-3-.16,0a10.69,10.69,0,0,1-2.26-.9,1.77,1.77,0,0,1-.82-.73.93.93,0,0,1,.14-.81l2.31-4.09,9.62,5.45L64.64,94l-17-9.59.06-.14c1.31-2.07,2.71-4.14,4.15-6.13l.16-.2,5.37,4.38A1.87,1.87,0,0,0,58,84.73,9.38,9.38,0,0,0,61.09,86l2.65.74L66,84l-3.4-2.76,3.59-4.4,7.15,5.83,2.6-3.19L60.85,67.17,61,67c2.26-2.45,4.66-4.86,7.14-7.15l3.47-3.09c.88-.74,1.81-1.51,2.77-2.28l3.62,4a8.2,8.2,0,0,0-6.43,2.08,10.16,10.16,0,0,0-3.33,4.69l0,.07,2.58,3,.07-.22a9.94,9.94,0,0,1,3-4.64,6,6,0,0,1,5.37-1.29L75.77,73.11l0,.12,3.79,1.09,3.22-10.27,4.49,5.31,3.22-2.72L77.88,51.79l.42-.36c1.49-1.1,3-2.15,4.44-3.13L94.37,63.77l.08.1,3.35-2.49L86.33,46ZM35.13,139.37a3.77,3.77,0,0,1,2.63,1.17,3.23,3.23,0,0,1,.77,2.48,2.58,2.58,0,0,1-1,2,4.15,4.15,0,0,1-2.71.47l-6-.5v0c0-.85.08-1.73.14-2.7l.27-3.36ZM63.45,74.59,59.87,79l-5.39-4.27c1.16-1.49,2.36-3,3.58-4.4Z"/><path class="cls-6" d="M153.5,258.05l4.36-.56.17,1.35a4.26,4.26,0,0,0,.74,2.19,1.59,1.59,0,0,0,1.54.49,1.51,1.51,0,0,0,1.35-1,8,8,0,0,0,0-3.16L160,244.52l4.6-.6,1.65,12.7q.59,4.44-.69,6.54t-4.72,2.54a5.75,5.75,0,0,1-4.95-1.27c-1.19-1.12-2-3-2.29-5.53,0-.09,0-.23,0-.42s0-.33,0-.43"/><path class="cls-6" d="M120.64,262.29l2.84-20.4,6.46.9,1,10.27c.1.9.17,1.78.23,2.63s.1,1.68.13,2.49c.27-.82.57-1.66.89-2.54s.69-1.83,1.1-2.84l3.58-9,6.44.9-2.84,20.4-4.28-.6,1.26-9q.14-1,.42-2.67c.19-1.15.41-2.47.68-4L132.87,264l-4.65-.64L127,247.16c-.19,1.82-.37,3.45-.54,4.9s-.31,2.58-.42,3.4l-1,7.43Z"/><path class="cls-6" d="M98.31,254.51l8-19,7.81,3.28a6.71,6.71,0,0,1,3.88,3.42,6.41,6.41,0,0,1-.3,5.07,7.09,7.09,0,0,1-3.48,4,6.23,6.23,0,0,1-5.08-.23l-3.56-1.49-2.84,6.78Zm8.84-8.77,2.9,1.22a2.18,2.18,0,0,0,3.27-1.33,2.43,2.43,0,0,0,.12-1.94,2.64,2.64,0,0,0-1.53-1.3l-2.85-1.2Z"/><path class="cls-6" d="M170.9,243l4.91-1.62,12.68,17.49-4.83,1.6-2.26-3.22-5.87,1.94.19,3.91-4.66,1.55Zm4.36,11.79,3.84-1.28-4.18-6.09Z"/><polygon class="cls-6" points="194.72 256.12 191.57 249.03 180.52 239.9 185.37 237.74 191.85 243.95 191.58 234.98 196.48 232.81 195.78 247.16 198.93 254.25 194.72 256.12"/><rect class="cls-6" x="146.44" y="252.22" width="7.37" height="2.84" transform="translate(-7.53 4.61) rotate(-1.72)"/></g></g></svg>