<svg xmlns="http://www.w3.org/2000/svg" viewBox="0 0 133 133"><defs><style>.cls-1{fill:#6d6e72;}</style></defs><g id="Layer_2" data-name="Layer 2"><g id="Layer_1-2" data-name="Layer 1"><path class="cls-1" d="M68.24,67.94C56,68.71,45,60.12,43.62,47.78,42.2,34.86,52.07,23.86,64.7,22.48c20.1-1.67,33,22.53,18.86,38A23.26,23.26,0,0,1,68.24,67.94Z"/><path class="cls-1" d="M77.16,105.63H37.4c-6.08,0-8.66.78-7.85-7.07C30.91,85.32,42.47,74.2,55.77,73.41H69.84a93.73,93.73,0,0,1,9.63.15c13.34,1.4,23.75,14.11,24.12,27.19.18,6.53-5.74,4.88-10.53,4.88Z"/><path class="cls-1" d="M66.5,133A66.5,66.5,0,1,1,133,66.5,66.57,66.57,0,0,1,66.5,133Zm0-130A63.5,63.5,0,1,0,130,66.5,63.58,63.58,0,0,0,66.5,3Z"/></g></g></svg>