<?xml version="1.0" standalone="no"?>
<!DOCTYPE svg PUBLIC "-//W3C//DTD SVG 20010904//EN"
 "http://www.w3.org/TR/2001/REC-SVG-20010904/DTD/svg10.dtd">
<svg version="1.0" xmlns="http://www.w3.org/2000/svg"
 width="1200.000000pt" height="1472.000000pt" viewBox="0 0 1200.000000 1472.000000"
 preserveAspectRatio="xMidYMid meet">

<g transform="translate(0.000000,1472.000000) scale(0.100000,-0.100000)"
fill="#000000" stroke="none">
<path d="M5565 13840 c-294 -17 -491 -45 -725 -102 -1003 -243 -1934 -783
-2631 -1523 -772 -820 -1210 -1806 -1309 -2945 -15 -170 -12 -591 5 -782 52
-595 203 -1136 465 -1673 245 -501 546 -915 975 -1339 1035 -1022 2228 -1506
3716 -1506 1289 0 2361 365 3284 1118 239 195 573 524 760 747 594 710 954
1505 1079 2385 43 300 55 789 28 1075 -116 1199 -587 2210 -1417 3041 -408
408 -851 727 -1372 988 -740 370 -1371 508 -2383 520 -179 3 -392 1 -475 -4z
m1065 -210 c416 -27 634 -75 1135 -253 366 -130 575 -220 800 -346 338 -189
770 -512 1054 -786 786 -760 1295 -1817 1407 -2920 22 -219 22 -610 0 -820
-103 -970 -449 -1814 -1025 -2505 -83 -99 -483 -541 -487 -537 -2 1 6 180 16
397 39 792 20 1207 -76 1690 -75 376 -112 473 -257 666 -126 168 -459 500
-677 674 -106 85 -238 170 -334 216 -192 90 -382 130 -816 169 -506 46 -736
81 -920 140 -116 37 -242 65 -292 65 -129 0 -199 76 -393 431 -59 107 -124
226 -146 265 l-39 71 85 133 c104 161 135 221 168 326 75 238 55 528 -52 748
-22 44 -81 135 -130 201 -50 65 -91 123 -91 127 0 15 188 295 239 356 68 82
158 148 211 156 22 3 59 9 82 12 30 5 53 17 77 41 31 31 33 37 29 84 -4 36
-14 60 -35 87 -41 51 -110 102 -138 102 -39 0 -82 -47 -125 -133 -50 -103
-148 -233 -319 -427 -93 -105 -138 -149 -149 -145 -8 3 -63 34 -121 69 -140
84 -171 99 -266 129 -111 35 -199 46 -425 56 -276 11 -282 14 -426 233 -87
132 -147 192 -207 209 -67 18 -121 -27 -153 -127 -31 -101 -150 -207 -334
-299 -252 -126 -351 -274 -247 -372 42 -40 56 -47 168 -78 229 -64 316 -156
265 -280 -32 -75 -186 -205 -244 -205 -110 0 -282 -206 -284 -338 0 -91 78
-179 220 -247 60 -29 81 -43 77 -54 -3 -8 -64 -103 -135 -210 -155 -237 -267
-436 -355 -634 -165 -371 -240 -639 -266 -947 -24 -292 -2 -371 251 -890 241
-495 265 -581 310 -1090 54 -624 49 -984 -16 -1112 -35 -69 -88 -108 -147
-108 -144 0 -279 -132 -264 -260 3 -25 9 -53 12 -62 5 -13 2 -18 -12 -18 -57
0 -456 425 -780 830 -248 311 -354 474 -503 775 -258 524 -410 1072 -460 1660
-13 154 -13 565 0 720 113 1347 787 2556 1885 3380 83 62 202 146 265 187 813
528 1525 762 2465 812 118 6 760 -3 925 -14z m-2626 -1159 c32 -20 76 -76 175
-221 32 -47 76 -100 100 -117 71 -55 119 -63 402 -74 287 -10 302 -13 410 -85
212 -140 459 -449 628 -784 92 -182 110 -246 93 -329 -15 -72 -119 -283 -167
-338 -30 -36 -40 -41 -64 -37 -35 7 -207 -34 -333 -80 -255 -92 -494 -127
-637 -92 -226 55 -660 275 -784 397 -58 57 -61 59 -113 59 -30 0 -100 -7 -157
-15 -56 -9 -120 -13 -142 -9 -60 9 -119 48 -154 101 -74 111 -22 178 251 327
142 77 246 152 292 209 28 35 31 46 31 105 -1 156 -110 281 -323 371 -121 51
-140 68 -122 111 15 35 80 96 118 111 15 6 53 15 86 20 80 13 149 51 223 122
69 66 113 142 113 195 0 37 15 72 32 72 6 0 25 -9 42 -19z m-124 -1945 c239
-144 290 -170 425 -221 163 -61 288 -85 465 -92 232 -8 289 4 633 133 147 55
158 53 133 -23 -14 -43 -14 -55 -1 -117 18 -84 43 -152 93 -253 46 -93 92
-205 92 -227 0 -11 -9 -15 -36 -13 -79 5 -63 -72 18 -94 96 -25 117 -47 125
-127 11 -119 32 -131 237 -142 209 -12 353 -44 565 -127 218 -85 442 -141 821
-204 384 -64 516 -102 721 -205 158 -79 499 -299 715 -460 291 -217 373 -368
489 -889 96 -432 120 -656 112 -1014 -9 -393 -81 -837 -159 -984 -62 -116
-195 -182 -463 -231 -233 -43 -341 -51 -675 -50 -300 2 -327 3 -562 36 -136
19 -250 37 -253 40 -11 11 -27 256 -22 343 10 187 99 321 227 340 38 6 55 17
113 76 166 168 187 355 68 604 -21 44 -85 150 -143 235 -57 85 -133 202 -168
259 -48 78 -79 116 -127 156 -192 158 -609 319 -1076 414 -411 84 -572 91
-744 33 -313 -106 -389 -207 -435 -572 -14 -120 -15 -940 0 -1615 5 -220 7
-402 5 -404 -2 -3 -167 -7 -367 -9 -520 -6 -1063 20 -1197 58 -85 24 -114 86
-68 144 40 50 100 69 278 87 138 14 167 26 191 82 30 67 39 192 50 667 10 460
3 696 -25 830 -26 124 -120 300 -161 300 -45 0 -38 -105 13 -181 59 -89 76
-327 71 -964 -6 -598 -2 -582 -154 -595 -139 -12 -236 -51 -309 -125 -31 -31
-46 -54 -50 -82 -8 -49 -15 -62 -49 -87 -23 -17 -46 -22 -134 -24 -128 -5
-176 7 -197 48 -19 37 -19 113 0 150 19 37 41 49 112 60 84 14 156 55 223 127
74 78 88 121 100 303 10 138 -1 680 -20 1055 -29 573 -54 708 -200 1075 -150
376 -204 641 -203 980 1 369 74 651 260 1009 171 329 363 611 416 611 12 0
114 -56 227 -124z m1910 -3111 c404 -59 884 -146 1093 -199 53 -14 127 -41
164 -60 175 -93 402 -346 523 -587 66 -131 84 -196 77 -281 -12 -138 -60 -178
-285 -234 -324 -81 -487 -159 -619 -297 -89 -93 -116 -150 -121 -265 -13 -266
100 -339 593 -383 66 -5 415 -13 775 -16 872 -7 991 3 1159 101 127 74 164 81
99 17 -142 -138 -898 -554 -1308 -719 -596 -239 -1110 -332 -1850 -332 -543 0
-937 40 -1280 131 -532 140 -1283 472 -1622 716 -43 31 -78 62 -78 70 0 18 26
17 240 -11 371 -49 685 -67 1175 -67 356 -1 426 2 557 22 82 13 100 31 116
116 26 131 34 324 42 1048 12 1026 20 1098 144 1200 23 19 53 39 67 44 42 17
157 12 339 -14z m1481 -1545 c28 -15 24 -52 -18 -176 -30 -89 -37 -124 -37
-189 0 -71 5 -91 42 -183 23 -57 40 -108 37 -113 -11 -17 -96 -9 -263 27 -186
40 -239 62 -264 114 -22 43 -23 123 -3 180 45 127 221 293 358 335 51 17 122
19 148 5z"/>
<path d="M4605 11822 c-44 -27 -85 -80 -85 -108 0 -33 37 -54 120 -67 122 -19
258 15 268 66 8 39 -122 109 -224 122 -38 5 -56 2 -79 -13z"/>
<path d="M5656 11031 c-9 -10 -21 -35 -27 -54 -25 -93 -270 -240 -496 -298
-42 -10 -94 -19 -115 -19 -110 0 -345 71 -568 172 -391 177 -448 185 -305 42
93 -94 382 -217 653 -280 131 -30 319 -42 389 -25 205 52 538 298 577 427 15
48 -71 75 -108 35z"/>
<path d="M4961 9784 c-61 -51 -63 -152 -6 -210 59 -59 155 3 155 100 0 45 -31
106 -61 121 -39 21 -53 19 -88 -11z"/>
<path d="M4545 9715 c-46 -45 -24 -161 36 -194 59 -32 159 21 159 85 0 76 -55
134 -127 134 -33 0 -50 -6 -68 -25z"/>
<path d="M5335 9666 c-42 -19 -83 -66 -91 -102 -5 -26 -1 -35 21 -52 57 -45
182 -33 220 21 33 48 8 115 -52 138 -33 12 -62 11 -98 -5z"/>
<path d="M4182 9594 c-62 -43 23 -174 114 -174 64 0 113 76 84 129 -29 55
-146 82 -198 45z"/>
<path d="M3864 9540 c-30 -12 -64 -58 -64 -87 0 -63 59 -111 118 -98 83 18
101 131 29 175 -35 22 -50 23 -83 10z"/>
<path d="M3474 9415 c-41 -25 -68 -64 -58 -89 20 -52 173 -43 203 12 22 42
-25 102 -79 102 -14 0 -43 -11 -66 -25z"/>
<path d="M3164 9331 c-79 -48 -101 -171 -32 -171 31 0 95 38 117 69 27 38 28
97 2 111 -29 15 -52 12 -87 -9z"/>
<path d="M8835 7731 c-6 -47 8 -298 25 -436 25 -202 33 -482 24 -925 -15 -788
-9 -1000 25 -1000 32 0 73 246 102 600 17 200 17 827 1 1040 -33 424 -81 688
-138 751 -26 28 -31 24 -39 -30z"/>
<path d="M1616 5028 c13 -693 11 -1246 -5 -1338 -16 -101 -24 -108 -103 -91
-141 29 -338 150 -489 301 -91 90 -100 103 -161 230 -36 74 -75 146 -86 160
l-20 25 -8 -29 c-21 -85 51 -757 111 -1026 47 -213 40 -301 -37 -500 -63 -161
-79 -229 -85 -355 -8 -170 30 -285 140 -424 132 -166 439 -367 809 -530 300
-133 458 -163 682 -131 129 19 154 51 155 200 2 201 72 617 115 675 14 19 15
19 73 -4 32 -13 148 -64 258 -114 613 -275 1411 -514 1905 -572 234 -27 799
-40 1185 -27 461 16 747 47 1104 118 463 92 786 193 1538 482 101 39 185 67
188 62 12 -20 37 -367 51 -711 l6 -166 182 -12 c244 -16 325 -5 556 72 156 51
419 182 567 280 272 182 445 358 511 521 22 54 24 70 19 165 -5 115 -21 174
-88 321 -60 135 -72 201 -65 360 3 74 17 216 31 315 67 483 85 662 85 849 l-1
141 -77 -151 c-42 -83 -101 -180 -130 -217 -172 -215 -501 -426 -591 -378 -38
21 -46 79 -44 336 0 132 8 403 17 603 23 521 21 632 -10 632 -7 0 -38 -31 -68
-69 -180 -226 -744 -621 -1221 -856 -517 -254 -1118 -432 -1736 -515 -478 -64
-1055 -69 -1534 -14 -1115 127 -2159 548 -2974 1197 -146 117 -235 196 -533
474 -120 112 -220 203 -224 203 -4 0 -3 -222 2 -492z m258 56 c47 -41 86 -79
86 -84 0 -12 164 -154 290 -249 233 -178 610 -415 915 -578 1236 -659 2669
-860 4106 -577 528 103 905 234 1434 494 349 172 528 280 785 470 166 123 267
190 287 190 17 0 17 -76 -2 -450 -38 -746 -94 -1484 -116 -1542 -51 -128
-1194 -652 -1864 -853 -510 -154 -1287 -297 -1815 -336 -696 -51 -1660 131
-2635 498 -547 206 -993 428 -1436 715 l-136 88 -13 870 c-15 966 -8 1420 20
1420 4 0 46 -34 94 -76z m-857 -1362 c110 -92 194 -140 407 -232 190 -83 204
-108 216 -398 5 -114 12 -218 15 -232 51 -197 139 -356 425 -771 221 -318 340
-519 340 -574 0 -72 -62 -101 -196 -91 -269 20 -721 217 -1030 447 -108 81
-248 226 -286 295 -84 155 -76 309 30 540 28 60 58 136 67 169 26 89 16 234
-35 490 -23 116 -44 254 -47 308 -6 93 -5 97 15 97 11 0 47 -22 79 -48z m9553
-135 c-6 -56 -25 -187 -41 -292 -37 -233 -46 -386 -30 -492 7 -43 47 -181 88
-308 64 -196 74 -238 71 -282 -6 -66 -50 -141 -142 -240 -226 -243 -717 -511
-1069 -584 -83 -17 -127 -20 -232 -17 -128 4 -175 15 -175 41 0 24 103 192
259 425 291 434 362 547 432 687 83 168 112 272 140 508 24 209 35 257 62 299
33 49 77 73 200 113 177 57 264 104 359 192 48 45 83 72 86 64 2 -6 -1 -58 -8
-114z m-8618 -998 c73 -37 271 -161 343 -215 88 -66 182 -163 191 -199 8 -32
-11 -158 -29 -186 -18 -30 -55 -35 -95 -13 -53 28 -138 128 -281 329 -142 198
-181 260 -181 288 0 22 2 21 52 -4z m7637 -89 c-33 -55 -311 -436 -389 -533
-79 -98 -114 -126 -138 -111 -23 14 -63 135 -69 209 -7 77 11 119 69 170 33
29 522 301 547 305 1 0 -8 -18 -20 -40z"/>
<path d="M2481 3939 c-24 -39 -35 -104 -61 -340 -20 -180 -71 -791 -67 -795 1
-1 97 -40 212 -87 116 -47 327 -136 470 -197 435 -188 617 -240 835 -240 l130
0 0 540 0 539 -132 42 c-284 88 -838 323 -1237 523 -50 26 -100 46 -111 46
-12 0 -28 -13 -39 -31z m215 -223 c141 -67 149 -95 149 -521 0 -170 -4 -327
-8 -348 -5 -22 -18 -43 -32 -53 -21 -14 -30 -14 -92 1 -92 23 -146 56 -168
101 -16 34 -17 61 -11 293 12 438 28 561 73 561 10 0 50 -15 89 -34z m424
-185 c89 -25 199 -73 260 -113 64 -42 70 -62 70 -248 1 -147 -46 -657 -61
-674 -7 -8 -260 118 -338 169 -22 15 -41 35 -41 43 0 9 -12 53 -27 99 -40 122
-49 117 197 123 138 3 205 9 207 16 6 18 -51 60 -112 83 -30 11 -96 25 -147
31 -123 14 -143 23 -162 71 -27 68 -17 341 15 401 13 23 55 23 139 -1z m618
-236 c152 -57 167 -139 22 -122 -96 11 -169 69 -156 122 8 33 43 33 134 0z
m112 -253 c31 -25 37 -83 29 -254 -17 -336 -44 -384 -205 -376 -127 6 -138 35
-132 358 5 291 3 288 179 289 89 1 110 -2 129 -17z"/>
<path d="M8390 3638 c-44 -16 -51 -48 -16 -72 34 -22 130 -46 186 -46 79 0 83
-15 18 -64 -45 -33 -48 -57 -12 -85 46 -36 97 -25 164 35 50 45 80 101 80 147
0 67 -56 88 -245 93 -96 3 -151 0 -175 -8z"/>
<path d="M4555 3310 c-55 -27 -109 -81 -136 -138 -18 -37 -23 -65 -23 -132 -1
-113 9 -114 113 -15 124 119 177 249 119 289 -28 20 -25 20 -73 -4z"/>
<path d="M8234 3085 c-27 -13 -107 -78 -178 -142 -214 -197 -217 -198 -366
-113 -50 29 -115 59 -143 67 -167 43 -323 -80 -425 -337 -58 -146 -52 -219 26
-302 50 -54 181 -139 306 -199 92 -45 109 -47 130 -17 53 76 -19 148 -237 238
-87 36 -120 68 -111 109 7 31 100 210 140 271 33 50 75 74 115 65 16 -4 77
-39 137 -79 59 -40 129 -78 155 -85 104 -30 190 4 316 124 131 123 201 166
295 180 57 9 108 -8 141 -46 41 -50 29 -118 -35 -200 -17 -21 -34 -54 -37 -72
-5 -30 0 -40 39 -81 62 -64 89 -63 155 7 27 28 62 79 79 112 26 54 29 70 29
155 0 80 -4 102 -23 138 -55 104 -150 175 -282 211 -101 28 -164 27 -226 -4z"/>
<path d="M6305 2985 c-21 -8 -656 -74 -772 -80 -75 -4 -172 -2 -252 6 -124 12
-131 12 -151 -6 -30 -27 -24 -81 12 -108 24 -18 45 -20 300 -22 339 -4 724
-36 779 -66 29 -15 23 -41 -18 -81 -89 -84 -115 -89 -603 -98 -447 -8 -499
-14 -587 -66 -80 -46 -117 -153 -94 -266 33 -158 189 -232 596 -282 200 -25
364 -37 508 -37 160 0 192 9 192 56 0 60 -105 85 -356 85 -326 0 -583 56 -670
146 -26 27 -33 43 -37 86 -3 43 0 58 17 80 40 50 129 60 286 32 184 -33 465
-3 658 70 167 63 320 169 378 262 30 49 22 104 -23 175 -66 100 -112 133 -163
114z"/>
</g>
</svg>
