<?xml version="1.0" encoding="UTF-8" standalone="no" ?>
<!DOCTYPE svg PUBLIC "-//W3C//DTD SVG 1.1//EN" "http://www.w3.org/Graphics/SVG/1.1/DTD/svg11.dtd">
<svg xmlns="http://www.w3.org/2000/svg" xmlns:xlink="http://www.w3.org/1999/xlink" version="1.1" width="678" height="452" viewBox="0 0 678 452" xml:space="preserve">
<desc>Created with Fabric.js 3.6.6</desc>
<defs>
</defs>
<rect x="0" y="0" width="100%" height="100%" fill="rgba(255, 255, 255, 1)"></rect>
<g transform="matrix(0.91 0 0 0.91 339.65 222.1)"  >
<g style=""   >
		<g transform="matrix(1 0 0 1 0.3 -1.3)" id="Ebene_1"  >
<path style="stroke: rgb(248,194,44); stroke-width: 5.1735; stroke-dasharray: none; stroke-linecap: butt; stroke-dashoffset: 0; stroke-linejoin: miter; stroke-miterlimit: 4; fill: rgb(255,255,255); fill-rule: nonzero; opacity: 1;"  transform=" translate(-186.8, -185.7)" d="M 360.909 185.702 c 0 96.154 -77.945 174.104 -174.104 174.104 c -96.156 0 -174.105 -77.949 -174.105 -174.104 c 0 -96.156 77.949 -174.105 174.105 -174.105 C 282.964 11.597 360.909 89.546 360.909 185.702 z" stroke-linecap="round" />
</g>
		<g transform="matrix(1 0 0 1 0.3 -1.3)" id="Ebene_1"  >
<path style="stroke: none; stroke-width: 1; stroke-dasharray: none; stroke-linecap: butt; stroke-dashoffset: 0; stroke-linejoin: miter; stroke-miterlimit: 4; fill: rgb(225,86,23); fill-rule: evenodd; opacity: 1;"  transform=" translate(-186.8, -185.7)" d="M 325.276 185.702 c 0 76.475 -61.996 138.471 -138.471 138.471 c -76.477 0 -138.473 -61.996 -138.473 -138.471 c 0 -76.479 61.996 -138.473 138.473 -138.473 C 263.28 47.229 325.276 109.224 325.276 185.702 z" stroke-linecap="round" />
</g>
		<g transform="matrix(1 0 0 1 4.17 -8.88)" id="Hand"  >
<path style="stroke: none; stroke-width: 1; stroke-dasharray: none; stroke-linecap: butt; stroke-dashoffset: 0; stroke-linejoin: miter; stroke-miterlimit: 4; fill: rgb(35,25,22); fill-rule: evenodd; opacity: 1;"  transform=" translate(-190.67, -178.12)" d="M 222.292 191.347 c 17.699 -0.693 30 -3.602 42.6 -9.6 c 3.857 -1.836 7.469 -5.244 11.4 -6 c 18.941 -3.648 33.107 7.318 39.602 19.799 c 1.938 3.73 5.777 8.771 4.199 13.801 c -1.902 6.057 -13.818 4.869 -20.4 5.4 c -39.604 3.203 -64.201 21.531 -92.4 36.6 c -10.74 5.74 -23.211 13.021 -34.801 16.201 c -31.318 8.588 -63.525 0.842 -78.6 -15.602 c -16.502 -18.002 -22.451 -47.492 -27.6 -76.801 c -1.711 -9.736 -5.033 -20.115 -5.4 -29.398 c -0.26 -6.592 2.086 -17.701 7.801 -18.602 c 8.168 -1.283 23.305 13.908 28.799 17.402 c 14.918 9.484 40.15 20.809 52.201 2.398 c 0.672 -7.273 1.232 -17.424 2.4 -27.6 c 1.512 -13.186 0.48 -32.75 13.199 -32.4 c 12.104 0.332 6.613 16.559 10.199 26.398 c 4.168 0.205 2.197 -5.059 2.402 -7.199 c 0.734 -7.734 -0.445 -18.818 8.398 -19.199 c 9.195 -0.395 7.982 8.514 8.4 18 c 0.072 1.646 -1.486 6.213 1.799 6.6 c 4.188 -0.273 2.738 -5.863 3 -8.398 c 0.738 -7.141 2.078 -18.051 9.6 -18.002 c 4.625 0.033 8.783 3.553 10.201 7.801 c 3.496 10.471 1.799 31.84 1.799 49.199 C 221.091 161.228 222.132 179.173 222.292 191.347 z M 215.692 114.548 c -0.389 -8.814 2.545 -25.973 -6.602 -24.602 c -7.666 1.15 -3.07 19.516 -6.6 26.4 c -3.875 -0.326 -9.096 0.695 -11.998 -0.6 c -0.686 -8.516 1.432 -19.834 -3.002 -24.602 c -7.916 2.883 -3.824 17.775 -5.398 27.002 c -4.002 0 -8 0 -12 0 c -2.309 -7.818 2.881 -24.783 -4.201 -26.4 c -9.189 -2.102 -7.426 17.318 -8.4 25.799 c -1.316 11.482 -3.303 23.443 -3.6 31.201 c -5.852 8.891 -15.412 14.164 -28.799 12.6 c -23.117 -2.701 -37.641 -22.463 -55.801 -29.4 c -3.844 3.271 -3.949 10.105 -3.6 15 c 1.205 16.955 7.75 36.688 10.199 52.199 c 30.064 -16.451 88.459 -34.359 130.199 -16.799 c 4.57 1.922 8.133 5.215 11.4 4.799 C 217.065 167.829 216.665 136.642 215.692 114.548 z M 179.093 203.946 c 6.994 -1.68 8.066 -13.955 5.398 -22.801 c -8.561 -1.24 -20.846 -1.949 -30 -0.6 C 157.759 190.138 165.954 207.103 179.093 203.946 z M 270.292 183.546 c 2.275 9.551 -1.525 17.949 -9 19.199 c -8.195 1.373 -10.996 -4.58 -15.6 -9.6 c -7.822 1.98 -16.73 2.871 -26.4 3 c -2.408 7.266 -4.66 15.604 -12 16.201 c -9.324 0.76 -12.854 -9.477 -17.4 -16.201 c -0.729 9.502 -11.045 15.469 -20.4 10.801 c 0 5.4 0 10.799 0 16.199 c -2.199 0 -4.398 0 -6.598 0 c -3.615 18.5 -0.883 32.488 17.998 31.201 c 21.383 -1.457 37.439 -15.369 55.799 -24.6 c 18.367 -9.234 38.375 -18.311 60.602 -19.801 c 7.557 -0.508 10.535 1.496 18.602 -2.398 C 313.729 187.97 289.126 173.046 270.292 183.546 z M 148.491 180.546 c -21.295 3.061 -39.518 8.635 -56.398 16.201 c -5.137 2.301 -12.143 3.635 -15 8.998 c 28.504 0.143 58.938 0.088 88.199 0 c -3.91 -5.527 -8.949 -9.24 -12 -15.598 c -1.57 -3.275 -1.611 -6.693 -4.199 -9.602 C 148.892 180.546 148.692 180.546 148.491 180.546 z M 207.292 207.548 c 5.566 -0.859 6.182 -9.404 8.4 -15 c -7.502 -4.5 -15.766 -8.234 -25.801 -10.201 C 193.032 190.36 197.714 209.022 207.292 207.548 z M 251.091 191.946 c 2.299 11.477 20.447 4.977 14.402 -6 C 261.356 188.612 255.858 189.913 251.091 191.946 z M 133.491 265.745 c 0 -13.998 0 -28.6 0 -42.6 c -3.371 -0.07 -1.51 -0.07 -10.199 0 c 0 -4.199 0 -8.398 0 -12.6 c -14.801 0 -29.6 0 -44.4 0 C 86.431 239.608 100.405 262.231 133.491 265.745 z M 128.091 210.546 c 0 2.799 0 5.6 0 8.4 c 13.086 0.078 24.361 -0.031 37.201 0 c 0 -2.6 0 -5.801 0 -8.4 C 152.894 210.546 140.491 210.546 128.091 210.546 z M 150.292 265.745 c 10.783 -1.215 22.047 -1.951 29.4 -6.6 c -20.578 1.859 -26.143 -17.738 -21 -36 c -2.801 0 -5.602 0 -8.4 0 C 150.292 237.347 150.292 251.546 150.292 265.745 z M 138.292 223.146 c 0 14 0 28.602 0 42.6 c 2.4 0 4.799 0 7.199 0 c 0 -13.998 0 -28.6 0 -42.6 C 143.091 223.146 140.692 223.146 138.292 223.146 z" stroke-linecap="round" />
</g>
		<g transform="matrix(1 0 0 1 -152.89 -20.32)" id="Ebene_1"  >
<circle style="stroke: none; stroke-width: 1; stroke-dasharray: none; stroke-linecap: butt; stroke-dashoffset: 0; stroke-linejoin: miter; stroke-miterlimit: 4; fill: rgb(0,0,0); fill-rule: nonzero; opacity: 1;"  cx="0" cy="0" r="8.436" />
</g>
		<g transform="matrix(1 0 0 1 152.11 -20.32)" id="Ebene_1"  >
<circle style="stroke: none; stroke-width: 1; stroke-dasharray: none; stroke-linecap: butt; stroke-dashoffset: 0; stroke-linejoin: miter; stroke-miterlimit: 4; fill: rgb(0,0,0); fill-rule: nonzero; opacity: 1;"  cx="0" cy="0" r="8.437" />
</g>
		<g transform="matrix(1 0 0 1 -147.73 40.59)" id="Ebene_1"  >
<path style="stroke: none; stroke-width: 1; stroke-dasharray: none; stroke-linecap: butt; stroke-dashoffset: 0; stroke-linejoin: miter; stroke-miterlimit: 4; fill: rgb(0,0,0); fill-rule: nonzero; opacity: 1;"  transform=" translate(-38.77, -227.59)" d="M 30.401 236.966 c -0.75 -0.82 -1.783 -2.688 -2.465 -5.211 c -1.58 -5.852 0.934 -11.219 7.768 -13.066 c 6.525 -1.764 12.086 1.459 13.824 7.893 c 0.691 2.557 0.584 4.367 0.408 5.176 l -2.369 -0.088 c 0.227 -1.119 0.205 -2.664 -0.26 -4.387 c -1.316 -4.867 -5.297 -7.26 -10.746 -5.787 c -5.111 1.381 -7.553 5.178 -6.199 10.197 c 0.449 1.664 1.238 3.232 2.053 4.168 L 30.401 236.966 z" stroke-linecap="round" />
</g>
		<g transform="matrix(1 0 0 1 -142.22 57.95)" id="Ebene_1"  >
<path style="stroke: none; stroke-width: 1; stroke-dasharray: none; stroke-linecap: butt; stroke-dashoffset: 0; stroke-linejoin: miter; stroke-miterlimit: 4; fill: rgb(0,0,0); fill-rule: nonzero; opacity: 1;"  transform=" translate(-44.28, -244.95)" d="M 52.222 236.046 l -8.305 3.43 l 3.967 9.604 l 8.305 -3.434 l 1.07 2.594 l -19.848 8.199 l -1.072 -2.59 l 9.307 -3.848 l -3.967 -9.6 l -9.307 3.846 l -1.07 -2.59 l 19.85 -8.203 L 52.222 236.046 z" stroke-linecap="round" />
</g>
		<g transform="matrix(1 0 0 1 -135.22 79.1)" id="Ebene_1"  >
<path style="stroke: none; stroke-width: 1; stroke-dasharray: none; stroke-linecap: butt; stroke-dashoffset: 0; stroke-linejoin: miter; stroke-miterlimit: 4; fill: rgb(0,0,0); fill-rule: nonzero; opacity: 1;"  transform=" translate(-51.28, -266.1)" d="M 47.712 261.524 l -6.975 1.428 l -1.428 -2.49 l 22.291 -4.332 l 1.65 2.875 l -14.99 17.055 l -1.477 -2.57 l 4.721 -5.355 L 47.712 261.524 z M 53.116 266.585 l 4.301 -4.932 c 0.98 -1.113 1.928 -2.025 2.848 -2.92 l -0.031 -0.057 c -1.238 0.344 -2.559 0.734 -3.914 0.996 l -6.441 1.27 L 53.116 266.585 z" stroke-linecap="round" />
</g>
		<g transform="matrix(1 0 0 1 -122.28 92.67)" id="Ebene_1"  >
<path style="stroke: none; stroke-width: 1; stroke-dasharray: none; stroke-linecap: butt; stroke-dashoffset: 0; stroke-linejoin: miter; stroke-miterlimit: 4; fill: rgb(0,0,0); fill-rule: nonzero; opacity: 1;"  transform=" translate(-64.22, -279.67)" d="M 50.792 279.763 l 17.098 -13.012 l 1.852 2.434 l -4.498 12.037 c -1.059 2.768 -2.088 5.154 -3.24 7.273 l 0.082 0.057 c 2.129 -1.941 4.17 -3.574 6.836 -5.602 l 7.152 -5.445 l 1.582 2.084 l -17.098 13.008 l -1.699 -2.232 l 4.547 -12.031 c 0.994 -2.639 2.08 -5.266 3.295 -7.512 l -0.084 -0.059 c -2.061 1.768 -4.094 3.357 -6.938 5.52 l -7.305 5.559 L 50.792 279.763 z" stroke-linecap="round" />
</g>
		<g transform="matrix(1 0 0 1 -109.97 106.88)" id="Ebene_1"  >
<path style="stroke: none; stroke-width: 1; stroke-dasharray: none; stroke-linecap: butt; stroke-dashoffset: 0; stroke-linejoin: miter; stroke-miterlimit: 4; fill: rgb(0,0,0); fill-rule: nonzero; opacity: 1;"  transform=" translate(-76.53, -293.88)" d="M 79.599 282.271 c 1.398 0.992 2.953 2.279 4.51 3.834 c 2.816 2.818 4.148 5.5 4.26 8.049 c 0.137 2.615 -0.834 5.162 -3.291 7.621 c -2.48 2.48 -5.297 3.719 -8.094 3.719 c -2.863 -0.023 -5.975 -1.602 -8.928 -4.555 c -1.42 -1.422 -2.502 -2.637 -3.381 -3.742 L 79.599 282.271 z M 68.124 297.669 c 0.428 0.564 1.127 1.309 1.895 2.076 c 4.215 4.217 8.814 4.125 12.916 0.021 c 3.607 -3.562 3.855 -7.869 -0.293 -12.016 c -1.014 -1.014 -1.871 -1.691 -2.502 -2.098 L 68.124 297.669 z" stroke-linecap="round" />
</g>
		<g transform="matrix(1 0 0 1 -97.9 118.08)" id="Ebene_1"  >
<path style="stroke: none; stroke-width: 1; stroke-dasharray: none; stroke-linecap: butt; stroke-dashoffset: 0; stroke-linejoin: miter; stroke-miterlimit: 4; fill: rgb(0,0,0); fill-rule: nonzero; opacity: 1;"  transform=" translate(-88.6, -305.08)" d="M 96.548 297.706 l -13.73 16.533 l -2.158 -1.793 l 13.73 -16.531 L 96.548 297.706 z" stroke-linecap="round" />
</g>
		<g transform="matrix(1 0 0 1 -85.57 127.98)" id="Ebene_1"  >
<path style="stroke: none; stroke-width: 1; stroke-dasharray: none; stroke-linecap: butt; stroke-dashoffset: 0; stroke-linejoin: miter; stroke-miterlimit: 4; fill: rgb(0,0,0); fill-rule: nonzero; opacity: 1;"  transform=" translate(-100.93, -314.98)" d="M 101.237 326.431 c -1.293 -0.309 -3.738 -1.145 -6.129 -2.789 c -2.676 -1.844 -4.41 -4.047 -5.002 -6.893 c -0.512 -2.518 0.172 -5.529 2.07 -8.287 c 3.635 -5.275 9.941 -6.621 15.873 -2.533 c 2.047 1.412 3.365 2.979 3.873 3.869 l -1.861 1.465 c -0.637 -1.096 -1.6 -2.223 -3.385 -3.453 c -4.305 -2.967 -8.957 -2.223 -12.014 2.211 c -3.092 4.488 -2.24 8.984 1.906 11.84 c 1.496 1.031 2.664 1.527 3.369 1.627 l 3.635 -5.275 l -3.568 -2.459 l 1.266 -1.838 l 5.826 4.014 L 101.237 326.431 z" stroke-linecap="round" />
</g>
		<g transform="matrix(1 0 0 1 -72.83 138.44)" id="Ebene_1"  >
<path style="stroke: none; stroke-width: 1; stroke-dasharray: none; stroke-linecap: butt; stroke-dashoffset: 0; stroke-linejoin: miter; stroke-miterlimit: 4; fill: rgb(0,0,0); fill-rule: nonzero; opacity: 1;"  transform=" translate(-113.67, -325.44)" d="M 111.655 325.548 l -5.066 5 l -2.555 -1.309 l 16.324 -15.785 l 2.951 1.51 l -3.268 22.471 l -2.641 -1.35 l 1.039 -7.062 L 111.655 325.548 z M 118.944 326.845 l 0.92 -6.48 c 0.213 -1.467 0.51 -2.748 0.793 -3.998 l -0.057 -0.029 c -0.85 0.961 -1.744 2.006 -2.738 2.969 l -4.707 4.572 L 118.944 326.845 z" stroke-linecap="round" />
</g>
		<g transform="matrix(1 0 0 1 -53.29 144.54)" id="Ebene_1"  >
<path style="stroke: none; stroke-width: 1; stroke-dasharray: none; stroke-linecap: butt; stroke-dashoffset: 0; stroke-linejoin: miter; stroke-miterlimit: 4; fill: rgb(0,0,0); fill-rule: nonzero; opacity: 1;"  transform=" translate(-133.21, -331.54)" d="M 131.45 319.171 c 1.402 0.248 3.381 0.779 5.143 1.436 c 2.777 1.033 4.4 2.246 5.215 3.807 c 0.652 1.262 0.74 2.857 0.15 4.439 c -0.977 2.631 -3.303 3.77 -5.662 3.711 l -0.033 0.09 c 1.324 1.102 1.717 2.883 1.418 5.15 c -0.387 3.053 -0.631 5.17 -0.502 6.104 l -2.688 -1 c -0.105 -0.719 0.078 -2.59 0.475 -5.297 c 0.434 -3 -0.283 -4.457 -2.609 -5.422 l -2.449 -0.91 l -3.242 8.721 l -2.598 -0.965 L 131.45 319.171 z M 130.64 329.306 l 2.66 0.988 c 2.777 1.033 5.105 0.164 5.961 -2.137 c 0.965 -2.598 -0.496 -4.434 -3.242 -5.453 c -1.256 -0.467 -2.156 -0.699 -2.648 -0.746 L 130.64 329.306 z" stroke-linecap="round" />
</g>
		<g transform="matrix(1 0 0 1 -34.9 149.55)" id="Ebene_1"  >
<path style="stroke: none; stroke-width: 1; stroke-dasharray: none; stroke-linecap: butt; stroke-dashoffset: 0; stroke-linejoin: miter; stroke-miterlimit: 4; fill: rgb(0,0,0); fill-rule: nonzero; opacity: 1;"  transform=" translate(-151.6, -336.55)" d="M 149.013 324.907 l -2.066 8.746 l 10.111 2.387 l 2.066 -8.744 l 2.727 0.645 l -4.936 20.904 l -2.729 -0.645 l 2.314 -9.801 l -10.111 -2.387 l -2.314 9.799 l -2.729 -0.645 l 4.936 -20.904 L 149.013 324.907 z" stroke-linecap="round" />
</g>
		<g transform="matrix(1 0 0 1 -9.06 153.66)" id="Ebene_1"  >
<path style="stroke: none; stroke-width: 1; stroke-dasharray: none; stroke-linecap: butt; stroke-dashoffset: 0; stroke-linejoin: miter; stroke-miterlimit: 4; fill: rgb(0,0,0); fill-rule: nonzero; opacity: 1;"  transform=" translate(-177.44, -340.66)" d="M 173.964 344.185 l -2.633 6.613 l -2.863 -0.172 l 8.604 -21.006 l 3.309 0.197 l 6.031 21.883 l -2.959 -0.176 l -1.885 -6.883 L 173.964 344.185 z M 181.155 342.444 l -1.762 -6.299 c -0.393 -1.428 -0.635 -2.719 -0.879 -3.979 l -0.062 -0.006 c -0.395 1.221 -0.791 2.539 -1.314 3.816 l -2.473 6.078 L 181.155 342.444 z" stroke-linecap="round" />
</g>
		<g transform="matrix(1 0 0 1 11.99 153.58)" id="Ebene_1"  >
<path style="stroke: none; stroke-width: 1; stroke-dasharray: none; stroke-linecap: butt; stroke-dashoffset: 0; stroke-linejoin: miter; stroke-miterlimit: 4; fill: rgb(0,0,0); fill-rule: nonzero; opacity: 1;"  transform=" translate(-198.49, -340.58)" d="M 189.325 330.497 c 1.668 -0.402 3.658 -0.73 5.854 -0.883 c 3.977 -0.27 6.875 0.492 8.869 2.082 c 2.061 1.615 3.342 4.02 3.578 7.488 c 0.24 3.5 -0.678 6.439 -2.514 8.547 c -1.9 2.143 -5.135 3.451 -9.303 3.736 c -2.004 0.137 -3.635 0.152 -5.043 0.088 L 189.325 330.497 z M 193.39 349.269 c 0.707 0.047 1.727 0.01 2.809 -0.066 c 5.949 -0.404 8.904 -3.93 8.508 -9.721 c -0.312 -5.062 -3.395 -8.078 -9.25 -7.68 c -1.43 0.098 -2.504 0.299 -3.225 0.508 L 193.39 349.269 z" stroke-linecap="round" />
</g>
		<g transform="matrix(1 0 0 1 35.47 150.14)" id="Ebene_1"  >
<path style="stroke: none; stroke-width: 1; stroke-dasharray: none; stroke-linecap: butt; stroke-dashoffset: 0; stroke-linejoin: miter; stroke-miterlimit: 4; fill: rgb(0,0,0); fill-rule: nonzero; opacity: 1;"  transform=" translate(-221.97, -337.14)" d="M 229.054 336.591 c -0.807 -2.895 -1.785 -6.398 -2.363 -8.982 l -0.061 0.012 c -0.205 2.596 -0.455 5.43 -0.869 8.561 l -1.434 11.006 l -2.055 0.455 l -5.652 -9.227 c -1.662 -2.768 -3.068 -5.262 -4.215 -7.621 l -0.062 0.016 c 0.52 2.627 1.143 6.148 1.664 9.365 l 1.447 9.121 l -2.586 0.576 l -3.215 -21.307 l 3.455 -0.771 l 5.844 9.352 c 1.447 2.387 2.646 4.537 3.691 6.594 l 0.062 -0.016 c 0.09 -2.24 0.32 -4.711 0.664 -7.566 l 1.473 -10.98 l 3.455 -0.771 l 5.986 20.691 l -2.676 0.596 L 229.054 336.591 z" stroke-linecap="round" />
</g>
		<g transform="matrix(1 0 0 1 50.62 145.56)" id="Ebene_1"  >
<path style="stroke: none; stroke-width: 1; stroke-dasharray: none; stroke-linecap: butt; stroke-dashoffset: 0; stroke-linejoin: miter; stroke-miterlimit: 4; fill: rgb(0,0,0); fill-rule: nonzero; opacity: 1;"  transform=" translate(-237.12, -332.56)" d="M 234.999 321.937 l 6.893 20.338 l -2.656 0.9 l -6.889 -20.338 L 234.999 321.937 z" stroke-linecap="round" />
</g>
		<g transform="matrix(1 0 0 1 63.86 140.37)" id="Ebene_1"  >
<path style="stroke: none; stroke-width: 1; stroke-dasharray: none; stroke-linecap: butt; stroke-dashoffset: 0; stroke-linejoin: miter; stroke-miterlimit: 4; fill: rgb(0,0,0); fill-rule: nonzero; opacity: 1;"  transform=" translate(-250.36, -327.37)" d="M 247.37 340.458 l -8.742 -19.617 l 2.795 -1.246 l 10.682 7.137 c 2.451 1.666 4.535 3.213 6.332 4.816 l 0.074 -0.064 c -1.398 -2.518 -2.523 -4.879 -3.885 -7.936 l -3.658 -8.207 l 2.389 -1.062 l 8.742 19.617 l -2.562 1.143 l -10.664 -7.182 c -2.342 -1.57 -4.648 -3.229 -6.557 -4.926 l -0.074 0.068 c 1.246 2.41 2.328 4.754 3.781 8.014 l 3.734 8.383 L 247.37 340.458 z" stroke-linecap="round" />
</g>
		<g transform="matrix(1 0 0 1 76.56 133.99)" id="Ebene_1"  >
<path style="stroke: none; stroke-width: 1; stroke-dasharray: none; stroke-linecap: butt; stroke-dashoffset: 0; stroke-linejoin: miter; stroke-miterlimit: 4; fill: rgb(0,0,0); fill-rule: nonzero; opacity: 1;"  transform=" translate(-263.06, -320.99)" d="M 259.022 310.942 l 10.516 18.717 l -2.443 1.375 l -10.516 -18.719 L 259.022 310.942 z" stroke-linecap="round" />
</g>
		<g transform="matrix(1 0 0 1 86.52 128.05)" id="Ebene_1"  >
<path style="stroke: none; stroke-width: 1; stroke-dasharray: none; stroke-linecap: butt; stroke-dashoffset: 0; stroke-linejoin: miter; stroke-miterlimit: 4; fill: rgb(0,0,0); fill-rule: nonzero; opacity: 1;"  transform=" translate(-273.02, -315.05)" d="M 272.173 324.276 c 1.477 -0.025 3.299 -0.51 4.893 -1.57 c 2.363 -1.572 2.912 -3.738 1.711 -5.541 c -1.094 -1.648 -2.703 -1.996 -5.721 -1.289 c -3.627 0.881 -6.457 0.541 -8.117 -1.953 c -1.854 -2.789 -0.92 -6.398 2.557 -8.711 c 1.807 -1.203 3.441 -1.676 4.512 -1.736 l 0.617 2.307 c -0.785 0.027 -2.316 0.316 -3.938 1.395 c -2.441 1.625 -2.4 3.703 -1.588 4.924 c 1.113 1.672 2.75 1.771 5.855 1.086 c 3.803 -0.846 6.289 -0.393 8.037 2.236 c 1.836 2.762 1.426 6.52 -2.797 9.326 c -1.725 1.15 -3.965 1.873 -5.344 1.871 L 272.173 324.276 z" stroke-linecap="round" />
</g>
		<g transform="matrix(1 0 0 1 96.5 116.53)" id="Ebene_1"  >
<path style="stroke: none; stroke-width: 1; stroke-dasharray: none; stroke-linecap: butt; stroke-dashoffset: 0; stroke-linejoin: miter; stroke-miterlimit: 4; fill: rgb(0,0,0); fill-rule: nonzero; opacity: 1;"  transform=" translate(-283, -303.53)" d="M 279.126 300.021 l -5.053 4.145 l -1.496 -1.822 l 12.297 -10.088 l 1.498 1.824 l -5.076 4.164 l 12.129 14.785 l -2.168 1.779 L 279.126 300.021 z" stroke-linecap="round" />
</g>
		<g transform="matrix(1 0 0 1 111.85 108.36)" id="Ebene_1"  >
<path style="stroke: none; stroke-width: 1; stroke-dasharray: none; stroke-linecap: butt; stroke-dashoffset: 0; stroke-linejoin: miter; stroke-miterlimit: 4; fill: rgb(0,0,0); fill-rule: nonzero; opacity: 1;"  transform=" translate(-298.35, -295.36)" d="M 285.897 291.581 c 0.805 -1.18 2.098 -2.768 3.416 -4.104 c 2.08 -2.113 3.854 -3.094 5.607 -3.199 c 1.418 -0.078 2.91 0.498 4.113 1.682 c 1.998 1.969 2.086 4.557 1.066 6.682 l 0.066 0.066 c 1.549 -0.754 3.332 -0.385 5.277 0.818 c 2.627 1.602 4.461 2.689 5.361 2.955 l -2.012 2.043 c -0.699 -0.199 -2.33 -1.131 -4.637 -2.602 c -2.559 -1.625 -4.18 -1.566 -6.014 0.16 l -1.832 1.859 l 6.625 6.529 l -1.943 1.973 L 285.897 291.581 z M 294.812 296.468 l 1.99 -2.021 c 2.08 -2.109 2.24 -4.59 0.492 -6.311 c -1.975 -1.943 -4.244 -1.365 -6.301 0.725 c -0.939 0.953 -1.521 1.678 -1.766 2.107 L 294.812 296.468 z" stroke-linecap="round" />
</g>
		<g transform="matrix(1 0 0 1 125.5 96.6)" id="Ebene_1"  >
<path style="stroke: none; stroke-width: 1; stroke-dasharray: none; stroke-linecap: butt; stroke-dashoffset: 0; stroke-linejoin: miter; stroke-miterlimit: 4; fill: rgb(0,0,0); fill-rule: nonzero; opacity: 1;"  transform=" translate(-312, -283.6)" d="M 310.517 286.212 l 3.971 5.902 l -1.758 2.266 l -12.479 -18.953 l 2.031 -2.617 l 21.463 7.371 l -1.816 2.342 l -6.744 -2.326 L 310.517 286.212 z M 313.142 279.296 l -6.193 -2.104 c -1.402 -0.482 -2.604 -1.01 -3.781 -1.52 l -0.039 0.049 c 0.787 1.014 1.648 2.088 2.408 3.24 l 3.621 5.471 L 313.142 279.296 z" stroke-linecap="round" />
</g>
		<g transform="matrix(1 0 0 1 130.16 78.57)" id="Ebene_1"  >
<path style="stroke: none; stroke-width: 1; stroke-dasharray: none; stroke-linecap: butt; stroke-dashoffset: 0; stroke-linejoin: miter; stroke-miterlimit: 4; fill: rgb(0,0,0); fill-rule: nonzero; opacity: 1;"  transform=" translate(-316.66, -265.57)" d="M 310.556 265.075 l -3.479 5.527 l -1.996 -1.256 l 8.471 -13.459 l 1.998 1.258 l -3.5 5.553 l 16.182 10.186 l -1.494 2.373 L 310.556 265.075 z" stroke-linecap="round" />
</g>
		<g transform="matrix(1 0 0 1 137.74 71.24)" id="Ebene_1"  >
<path style="stroke: none; stroke-width: 1; stroke-dasharray: none; stroke-linecap: butt; stroke-dashoffset: 0; stroke-linejoin: miter; stroke-miterlimit: 4; fill: rgb(0,0,0); fill-rule: nonzero; opacity: 1;"  transform=" translate(-324.24, -258.24)" d="M 315.397 251.97 l 19.002 10.053 l -1.314 2.48 l -18.998 -10.053 L 315.397 251.97 z" stroke-linecap="round" />
</g>
		<g transform="matrix(1 0 0 1 143.98 57.9)" id="Ebene_1"  >
<path style="stroke: none; stroke-width: 1; stroke-dasharray: none; stroke-linecap: butt; stroke-dashoffset: 0; stroke-linejoin: miter; stroke-miterlimit: 4; fill: rgb(0,0,0); fill-rule: nonzero; opacity: 1;"  transform=" translate(-330.48, -244.9)" d="M 334.021 235.745 c 6.811 2.803 8.758 8.465 6.67 13.535 c -2.17 5.279 -7.773 7.248 -13.789 4.775 c -6.311 -2.598 -8.838 -8.188 -6.652 -13.496 C 322.491 235.106 328.093 233.306 334.021 235.745 z M 327.958 251.317 c 4.275 1.76 9.025 1.025 10.701 -3.045 c 1.672 -4.07 -1.125 -7.91 -5.637 -9.766 c -3.982 -1.639 -8.957 -1.271 -10.719 3.002 C 320.546 245.786 323.622 249.534 327.958 251.317 z" stroke-linecap="round" />
</g>
		<g transform="matrix(1 0 0 1 150.75 37.67)" id="Ebene_1"  >
<path style="stroke: none; stroke-width: 1; stroke-dasharray: none; stroke-linecap: butt; stroke-dashoffset: 0; stroke-linejoin: miter; stroke-miterlimit: 4; fill: rgb(0,0,0); fill-rule: nonzero; opacity: 1;"  transform=" translate(-337.25, -224.67)" d="M 345.64 235.153 l -20.801 -5.348 l 0.762 -2.965 l 12.229 -3.928 c 2.826 -0.885 5.338 -1.557 7.713 -1.965 l -0.008 -0.1 c -2.842 -0.469 -5.389 -1.059 -8.629 -1.891 l -8.703 -2.238 l 0.652 -2.529 l 20.801 5.346 l -0.699 2.719 l -12.252 3.889 c -2.689 0.854 -5.42 1.633 -7.936 2.072 l 0.006 0.102 c 2.662 0.52 5.17 1.133 8.627 2.02 l 8.891 2.285 L 345.64 235.153 z" stroke-linecap="round" />
</g>
		<g transform="matrix(1 0 0 1 -98.63 -121.17)" id="Devanagari_2_"  >
<path style="stroke: none; stroke-width: 1; stroke-dasharray: none; stroke-linecap: butt; stroke-dashoffset: 0; stroke-linejoin: miter; stroke-miterlimit: 4; fill: rgb(0,0,0); fill-rule: nonzero; opacity: 1;"  transform=" translate(-87.87, -65.83)" d="M 76.011 73.111 c -0.77 -0.77 -1.156 -1.154 -1.925 -1.924 c 1.224 -1.224 2.361 -2.324 3.438 -3.339 c 1.078 -1.016 2.096 -1.949 3.087 -2.836 s 1.955 -1.727 2.926 -2.555 s 1.949 -1.644 2.972 -2.474 s 2.09 -1.675 3.241 -2.561 s 2.383 -1.811 3.742 -2.795 c 0.637 0.882 0.957 1.325 1.594 2.207 c -1.235 0.895 -1.848 1.349 -3.065 2.277 c 0.963 1.267 1.805 2.376 2.587 3.406 s 1.505 1.979 2.227 2.929 s 1.444 1.902 2.227 2.931 c 0.782 1.03 1.625 2.137 2.588 3.404 c -1.094 0.834 -1.637 1.259 -2.715 2.123 c -0.708 -0.885 -1.238 -1.549 -1.769 -2.213 s -1.062 -1.329 -1.77 -2.214 c -0.121 1.052 -0.464 2.057 -0.964 3.001 c -0.491 0.928 -1.125 1.771 -1.932 2.472 c -1.3 1.127 -2.676 1.802 -4.157 2.019 c -1.481 0.217 -2.635 -0.086 -3.455 -0.954 c -0.409 -0.433 -0.679 -1.003 -0.819 -1.687 c -0.144 -0.703 -0.161 -1.5 -0.02 -2.372 c -0.793 0.729 -1.383 1.285 -1.97 1.844 s -1.172 1.122 -1.945 1.884 c -0.785 -0.796 -1.176 -1.192 -1.961 -1.988 c 1.34 -1.321 2.472 -2.396 3.538 -3.384 s 2.065 -1.89 3.151 -2.843 s 2.258 -1.958 3.683 -3.133 c 0.71 0.864 1.066 1.295 1.776 2.159 c -1.024 0.844 -1.533 1.273 -2.543 2.143 c -0.565 0.88 -0.864 1.776 -0.899 2.67 c -0.036 0.895 0.209 1.63 0.724 2.202 c 0.283 0.315 0.729 0.396 1.336 0.254 s 1.195 -0.459 1.766 -0.955 c 0.687 -0.596 1.21 -1.448 1.603 -2.538 c 0.401 -1.115 0.64 -2.378 0.692 -3.791 c -0.8 -1.001 -1.401 -1.752 -2.001 -2.503 s -1.201 -1.504 -2.001 -2.506 c -1.347 1.079 -2.511 2.049 -3.585 2.962 s -2.056 1.773 -3.031 2.646 s -1.941 1.759 -2.979 2.737 S 77.26 71.863 76.011 73.111 z" stroke-linecap="round" />
</g>
		<g transform="matrix(1 0 0 1 -84.66 -132.88)" id="Devanagari_2_"  >
<path style="stroke: none; stroke-width: 1; stroke-dasharray: none; stroke-linecap: butt; stroke-dashoffset: 0; stroke-linejoin: miter; stroke-miterlimit: 4; fill: rgb(0,0,0); fill-rule: nonzero; opacity: 1;"  transform=" translate(-101.84, -54.12)" d="M 94.315 57.395 c -0.643 -0.879 -0.963 -1.319 -1.606 -2.198 c 1.559 -1.144 2.938 -2.113 4.228 -2.996 s 2.49 -1.677 3.697 -2.456 s 2.422 -1.54 3.748 -2.343 s 2.764 -1.648 4.42 -2.58 c 0.56 0.935 0.84 1.401 1.399 2.336 c -1.341 0.753 -2.007 1.138 -3.333 1.926 c 0.693 1.167 1.211 2.044 1.73 2.919 s 1.039 1.749 1.731 2.916 c 0.71 1.197 0.836 2.522 0.396 3.938 c -0.447 1.438 -1.338 2.58 -2.659 3.438 c -1.369 0.889 -2.79 1.25 -4.303 1.088 s -2.681 -0.791 -3.484 -1.927 c -0.784 -1.108 -1.371 -1.939 -1.958 -2.77 s -1.175 -1.661 -1.958 -2.769 C 95.542 56.501 95.131 56.796 94.315 57.395 z M 106.548 59.949 c 0.524 -0.34 0.852 -0.816 0.99 -1.434 c 0.138 -0.617 0.045 -1.19 -0.284 -1.716 c -0.721 -1.15 -1.261 -2.012 -1.802 -2.874 s -1.08 -1.724 -1.8 -2.874 c -1.678 1.054 -2.511 1.594 -4.163 2.706 c 0.756 1.126 1.323 1.972 1.891 2.817 s 1.135 1.689 1.892 2.815 c 0.346 0.515 0.845 0.824 1.489 0.932 C 105.406 60.428 106 60.306 106.548 59.949 z" stroke-linecap="round" />
</g>
		<g transform="matrix(1 0 0 1 -67.13 -140.1)" id="Devanagari_2_"  >
<path style="stroke: none; stroke-width: 1; stroke-dasharray: none; stroke-linecap: butt; stroke-dashoffset: 0; stroke-linejoin: miter; stroke-miterlimit: 4; fill: rgb(0,0,0); fill-rule: nonzero; opacity: 1;"  transform=" translate(-119.37, -46.9)" d="M 109.072 47.8 c -0.541 -0.945 -0.812 -1.417 -1.353 -2.363 c 1.534 -0.879 2.927 -1.643 4.232 -2.339 s 2.526 -1.324 3.72 -1.92 s 2.362 -1.161 3.568 -1.726 s 2.449 -1.13 3.794 -1.718 s 2.791 -1.198 4.408 -1.848 c 0.406 1.01 0.61 1.515 1.017 2.525 c -1.562 0.627 -2.34 0.951 -3.889 1.622 c 0.7 1.614 1.049 2.422 1.749 4.036 c -1.596 0.691 -2.784 1.235 -3.969 1.789 s -2.366 1.119 -3.928 1.905 c -0.215 0.108 -0.383 0.25 -0.499 0.42 s -0.141 0.323 -0.073 0.456 c 0.169 0.332 0.667 0.606 1.443 0.856 c 0.756 0.243 1.312 0.303 1.659 0.133 c 0.423 -0.208 0.972 -0.651 1.649 -1.293 c 0.65 -0.616 1.21 -1.021 1.643 -1.219 c 1.351 -0.619 2.677 -0.75 3.929 -0.436 c 1.238 0.31 2.082 0.982 2.512 2.015 c 0.592 1.423 0.414 2.905 -0.473 4.455 c -0.453 0.792 -1.016 1.488 -1.69 2.094 s -1.461 1.123 -2.368 1.556 c -0.867 0.415 -1.756 0.713 -2.674 0.896 s -1.872 0.259 -2.85 0.209 c -0.982 -0.049 -1.934 -0.219 -2.838 -0.497 s -1.766 -0.669 -2.586 -1.178 c 0.578 -1.043 0.874 -1.563 1.478 -2.601 c 1.273 0.811 2.662 1.283 4.139 1.401 c 1.466 0.117 2.843 -0.14 4.125 -0.753 c 1.001 -0.479 1.743 -1.138 2.248 -1.953 c 0.497 -0.803 0.619 -1.56 0.306 -2.264 c -0.141 -0.317 -0.437 -0.494 -0.825 -0.57 c -0.38 -0.075 -0.817 -0.043 -1.269 0.164 c -0.424 0.194 -0.959 0.624 -1.593 1.238 c -0.63 0.61 -1.174 1.019 -1.59 1.224 c -0.862 0.423 -2.225 0.411 -4.098 -0.015 c -1.888 -0.429 -3.056 -0.991 -3.447 -1.713 c -0.45 -0.831 -0.416 -1.748 0.042 -2.728 c 0.452 -0.969 1.233 -1.787 2.36 -2.355 c 0.948 -0.478 1.662 -0.827 2.378 -1.173 s 1.432 -0.687 2.393 -1.13 c -0.269 -0.582 -0.402 -0.873 -0.671 -1.455 c -1.643 0.758 -3.001 1.417 -4.264 2.047 s -2.429 1.232 -3.678 1.897 S 110.657 46.892 109.072 47.8 z" stroke-linecap="round" />
</g>
		<g transform="matrix(1 0 0 1 -58.42 -146.69)" id="Devanagari_2_"  >
<path style="stroke: none; stroke-width: 1; stroke-dasharray: none; stroke-linecap: butt; stroke-dashoffset: 0; stroke-linejoin: miter; stroke-miterlimit: 4; fill: rgb(0,0,0); fill-rule: nonzero; opacity: 1;"  transform=" translate(-128.08, -40.31)" d="M 136.718 52.271 c -0.568 -1.487 -1.064 -2.786 -1.525 -3.995 s -0.888 -2.325 -1.314 -3.44 s -0.851 -2.23 -1.312 -3.438 s -0.958 -2.51 -1.525 -3.997 c -1.381 0.526 -2.07 0.797 -3.441 1.357 c -0.412 -1.008 -0.619 -1.511 -1.031 -2.519 c 1.395 -0.57 2.095 -0.846 3.5 -1.382 c -0.962 -1.468 -2.208 -2.535 -3.733 -3.145 c -1.509 -0.604 -2.959 -0.614 -4.279 -0.051 c -0.75 0.319 -1.295 0.788 -1.646 1.363 c -0.364 0.598 -0.446 1.149 -0.223 1.647 c 0.274 0.613 0.79 1.107 1.505 1.495 c 0.734 0.397 1.625 0.656 2.658 0.756 c -1.599 0.68 -2.394 1.032 -3.978 1.757 c -0.794 0.009 -1.522 -0.208 -2.182 -0.63 c -0.641 -0.41 -1.156 -0.98 -1.508 -1.721 c -0.577 -1.211 -0.473 -2.545 0.363 -3.957 c 0.424 -0.717 0.978 -1.356 1.639 -1.908 s 1.436 -1.019 2.319 -1.395 c 1.083 -0.461 2.206 -0.699 3.355 -0.712 s 2.327 0.198 3.52 0.635 c 1.175 0.43 2.224 1.035 3.153 1.807 s 1.737 1.709 2.428 2.809 c 1.467 -0.521 2.204 -0.771 3.68 -1.256 c 0.34 1.034 0.511 1.551 0.851 2.585 c -1.399 0.459 -2.097 0.696 -3.487 1.189 c 0.532 1.5 0.998 2.813 1.43 4.032 s 0.833 2.343 1.232 3.468 s 0.799 2.25 1.231 3.469 s 0.898 2.531 1.431 4.031 C 138.582 51.569 137.959 51.797 136.718 52.271 z" stroke-linecap="round" />
</g>
		<g transform="matrix(1 0 0 1 -39.84 -149.84)" id="Devanagari_2_"  >
<path style="stroke: none; stroke-width: 1; stroke-dasharray: none; stroke-linecap: butt; stroke-dashoffset: 0; stroke-linejoin: miter; stroke-miterlimit: 4; fill: rgb(0,0,0); fill-rule: nonzero; opacity: 1;"  transform=" translate(-146.66, -37.16)" d="M 137.121 35.227 c -0.346 -1.032 -0.519 -1.548 -0.865 -2.581 c 1.6 -0.535 3.044 -0.99 4.398 -1.4 s 2.615 -0.773 3.846 -1.112 s 2.435 -0.654 3.673 -0.964 s 2.511 -0.612 3.886 -0.92 c 1.375 -0.307 2.85 -0.619 4.494 -0.937 c 0.208 1.068 0.313 1.602 0.521 2.67 c -1.437 0.278 -2.153 0.426 -3.584 0.738 c 0.34 1.555 0.638 2.915 0.914 4.178 s 0.531 2.429 0.787 3.595 s 0.51 2.333 0.787 3.596 s 0.575 2.622 0.915 4.177 c -1.286 0.28 -1.928 0.428 -3.208 0.738 c -0.376 -1.546 -0.706 -2.898 -1.012 -4.154 s -0.589 -2.417 -0.871 -3.577 s -0.565 -2.319 -0.871 -3.576 s -0.634 -2.61 -1.011 -4.157 c -0.971 0.235 -1.698 0.42 -2.424 0.608 s -1.451 0.381 -2.416 0.647 c 0.514 1.854 0.899 3.243 1.285 4.633 s 0.771 2.78 1.285 4.633 c 0.1 0.358 0.075 0.703 -0.07 1.026 c -0.146 0.325 -0.37 0.527 -0.671 0.613 c -0.603 0.172 -1.821 -0.125 -3.707 -0.842 c -1.884 -0.717 -2.93 -1.284 -3.085 -1.756 c -0.085 -0.26 -0.046 -0.521 0.075 -0.769 c 0.112 -0.229 0.3 -0.411 0.583 -0.501 c 0.609 -0.195 0.914 -0.29 1.525 -0.479 c 0.226 -0.069 0.413 -0.205 0.527 -0.396 c 0.123 -0.206 0.147 -0.435 0.083 -0.648 c -0.544 -1.798 -0.816 -2.697 -1.36 -4.495 C 139.771 34.354 138.885 34.636 137.121 35.227 z" stroke-linecap="round" />
</g>
		<g transform="matrix(1 0 0 1 -19.55 -152.54)" id="Devanagari_2_"  >
<path style="stroke: none; stroke-width: 1; stroke-dasharray: none; stroke-linecap: butt; stroke-dashoffset: 0; stroke-linejoin: miter; stroke-miterlimit: 4; fill: rgb(0,0,0); fill-rule: nonzero; opacity: 1;"  transform=" translate(-166.95, -34.46)" d="M 156.174 30.16 c -0.214 -1.067 -0.321 -1.6 -0.535 -2.667 c 1.782 -0.356 3.391 -0.647 4.895 -0.899 s 2.903 -0.465 4.268 -0.656 s 2.696 -0.36 4.065 -0.516 s 2.775 -0.299 4.291 -0.431 s 3.142 -0.252 4.95 -0.353 c 0.061 1.087 0.093 1.63 0.154 2.717 c -1.056 0.059 -1.849 0.111 -2.64 0.169 s -1.581 0.12 -2.635 0.214 c 0.097 1.077 0.169 1.884 0.242 2.691 s 0.146 1.613 0.242 2.69 c -1.545 0.138 -2.702 0.263 -3.858 0.396 s -2.313 0.276 -3.851 0.493 c -0.9 0.127 -1.62 0.501 -2.145 1.111 c -0.551 0.64 -0.761 1.33 -0.641 2.064 c 0.193 1.178 0.883 2.172 1.995 3.007 c 1.097 0.823 3.339 1.032 3.339 1.032 c 0.03 -0.088 -1.03 -1.328 -1.131 -2.067 c -0.155 -1.132 0.204 -2.178 1.105 -3.115 c 0.904 -0.939 2.093 -1.493 3.541 -1.639 c 1.454 -0.147 2.742 0.179 3.803 0.971 c 1.074 0.802 1.644 1.851 1.727 3.091 c 0.092 1.389 -0.575 2.623 -1.946 3.73 c -0.688 0.555 -1.451 0.997 -2.292 1.33 s -1.759 0.558 -2.764 0.677 c -1.22 0.145 -2.396 0.097 -3.541 -0.147 s -2.257 -0.684 -3.35 -1.321 s -1.97 -1.361 -2.624 -2.183 s -1.083 -1.741 -1.276 -2.767 c -0.28 -1.489 0.118 -2.912 1.244 -4.202 c 0.559 -0.64 1.231 -1.157 1.994 -1.548 s 1.621 -0.656 2.568 -0.79 c 1.708 -0.241 2.564 -0.35 4.277 -0.543 c -0.118 -1.037 -0.176 -1.556 -0.293 -2.593 c -1.766 0.199 -3.235 0.394 -4.604 0.589 s -2.639 0.392 -4.003 0.623 S 157.921 29.812 156.174 30.16 z M 171.933 40.793 c 0.433 0.051 1.031 -0.326 1.443 -0.742 c 0.413 -0.417 0.642 -0.858 0.6 -1.327 s -0.251 -0.864 -0.625 -1.18 c -0.342 -0.292 -0.757 -0.414 -1.244 -0.365 c -0.481 0.049 -0.864 0.258 -1.136 0.606 c -0.3 0.384 -0.427 0.812 -0.374 1.281 c 0.045 0.396 0.19 0.743 0.413 1.041 C 171.247 40.426 171.623 40.756 171.933 40.793 z" stroke-linecap="round" />
</g>
		<g transform="matrix(1 0 0 1 -23.31 -141.94)" id="Devanagari_2_"  >
<path style="stroke: none; stroke-width: 1; stroke-dasharray: none; stroke-linecap: butt; stroke-dashoffset: 0; stroke-linejoin: miter; stroke-miterlimit: 4; fill: rgb(0,0,0); fill-rule: nonzero; opacity: 1;"  transform=" translate(-163.19, -45.06)" d="M 163.476 46.735 c -0.913 -0.524 -1.375 -0.784 -2.306 -1.294 c 0.682 -0.825 1.029 -1.233 1.732 -2.05 c 0.936 0.536 1.398 0.809 2.315 1.36 C 164.51 45.542 164.162 45.938 163.476 46.735 z" stroke-linecap="round" />
</g>
		<g transform="matrix(1 0 0 1 13.21 -152.77)" id="Devanagari_2_"  >
<path style="stroke: none; stroke-width: 1; stroke-dasharray: none; stroke-linecap: butt; stroke-dashoffset: 0; stroke-linejoin: miter; stroke-miterlimit: 4; fill: rgb(0,0,0); fill-rule: nonzero; opacity: 1;"  transform=" translate(-199.71, -34.23)" d="M 189.196 27.121 c 0.015 -1.088 0.021 -1.632 0.036 -2.72 c 1.684 0.022 3.199 0.07 4.612 0.129 s 2.726 0.133 4.003 0.219 s 2.52 0.184 3.795 0.3 s 2.585 0.25 3.992 0.414 s 2.913 0.355 4.583 0.599 c -0.157 1.077 -0.236 1.616 -0.394 2.693 c -1.445 -0.21 -2.173 -0.306 -3.622 -0.483 c -0.193 1.58 -0.363 2.961 -0.521 4.244 s -0.302 2.468 -0.447 3.653 s -0.29 2.37 -0.448 3.653 s -0.33 2.666 -0.524 4.245 c -1.304 -0.159 -1.957 -0.232 -3.264 -0.361 c 0.124 -1.246 0.218 -2.18 0.311 -3.114 s 0.187 -1.87 0.311 -3.116 c -0.521 0.373 -1.143 0.666 -1.833 0.84 c -0.686 0.173 -1.412 0.219 -2.144 0.166 c -1.807 -0.13 -3.323 -0.676 -4.556 -1.674 c -1.242 -1.006 -1.866 -2.189 -1.829 -3.53 c 0.034 -1.222 0.061 -2.137 0.086 -3.053 s 0.05 -1.833 0.084 -3.056 C 190.534 27.144 190.09 27.133 189.196 27.121 z M 197.846 35.695 c 0.689 0.05 1.399 -0.071 2.11 -0.319 c 0.701 -0.245 1.376 -0.612 1.983 -1.126 c 0.127 -1.276 0.224 -2.233 0.318 -3.19 s 0.189 -1.914 0.315 -3.189 c -1.498 -0.147 -2.624 -0.241 -3.749 -0.325 s -2.252 -0.158 -3.754 -0.234 c -0.062 1.213 -0.105 2.124 -0.152 3.034 s -0.095 1.822 -0.156 3.035 c -0.03 0.595 0.291 1.101 0.877 1.537 C 196.218 35.348 196.953 35.631 197.846 35.695 z" stroke-linecap="round" />
</g>
		<g transform="matrix(1 0 0 1 12.25 -147.82)" id="Devanagari_2_"  >
<path style="stroke: none; stroke-width: 1; stroke-dasharray: none; stroke-linecap: butt; stroke-dashoffset: 0; stroke-linejoin: miter; stroke-miterlimit: 4; fill: rgb(0,0,0); fill-rule: nonzero; opacity: 1;"  transform=" translate(-198.75, -39.18)" d="M 199.662 35.921 c 0.906 -0.477 1.364 -0.713 2.286 -1.176 c 0.464 0.989 0.69 1.485 1.137 2.477 c -1.475 1.243 -2.55 2.193 -3.61 3.151 s -2.107 1.927 -3.461 3.238 c -0.63 -0.652 -0.95 -0.979 -1.596 -1.625 c 1.104 -1.033 1.954 -1.796 2.812 -2.555 s 1.724 -1.512 2.905 -2.5 C 199.947 36.527 199.853 36.325 199.662 35.921 z" stroke-linecap="round" />
</g>
		<g transform="matrix(1 0 0 1 38.6 -150.58)" id="Devanagari_2_"  >
<path style="stroke: none; stroke-width: 1; stroke-dasharray: none; stroke-linecap: butt; stroke-dashoffset: 0; stroke-linejoin: miter; stroke-miterlimit: 4; fill: rgb(0,0,0); fill-rule: nonzero; opacity: 1;"  transform=" translate(-225.1, -36.42)" d="M 208.919 28.627 c 0.151 -1.078 0.227 -1.617 0.378 -2.695 c 1.859 0.26 3.582 0.533 5.207 0.815 s 3.153 0.572 4.621 0.871 s 2.878 0.608 4.264 0.93 s 2.749 0.657 4.127 1.016 s 2.77 0.741 4.214 1.16 s 2.94 0.874 4.521 1.384 s 3.246 1.074 5.031 1.716 c -0.369 1.024 -0.555 1.535 -0.924 2.56 c -1.742 -0.627 -3.275 -1.144 -4.703 -1.607 s -2.749 -0.872 -4.076 -1.262 s -2.657 -0.764 -4.104 -1.147 s -3.01 -0.776 -4.801 -1.191 c -0.402 1.728 -0.602 2.592 -1.004 4.32 c -0.208 0.895 -0.773 1.608 -1.652 2.072 c -0.886 0.467 -1.883 0.577 -2.936 0.362 c -0.312 -0.064 -0.563 -0.126 -0.76 -0.191 c -0.193 -0.063 -0.313 -0.138 -0.355 -0.222 c 0.956 1.676 1.642 2.94 2.31 4.207 s 1.32 2.537 2.146 4.238 c -1.164 0.365 -1.742 0.553 -2.887 0.942 c -0.722 -1.454 -1.38 -2.72 -2.009 -3.893 s -1.229 -2.252 -1.842 -3.328 s -1.243 -2.149 -1.943 -3.306 c -0.7 -1.157 -1.471 -2.397 -2.385 -3.807 c 1.287 -0.55 1.935 -0.819 3.247 -1.342 c 0.233 0.97 0.687 1.787 1.305 2.453 c 0.629 0.678 1.344 1.116 2.158 1.273 c 0.547 0.105 1.073 0.033 1.537 -0.229 c 0.444 -0.25 0.72 -0.624 0.816 -1.087 c 0.271 -1.299 0.405 -1.949 0.676 -3.248 c -1.351 -0.28 -2.479 -0.496 -3.532 -0.689 s -2.034 -0.365 -3.091 -0.538 S 210.282 28.817 208.919 28.627 z" stroke-linecap="round" />
</g>
		<g transform="matrix(1 0 0 1 44.55 -146.07)" id="Devanagari_2_"  >
<path style="stroke: none; stroke-width: 1; stroke-dasharray: none; stroke-linecap: butt; stroke-dashoffset: 0; stroke-linejoin: miter; stroke-miterlimit: 4; fill: rgb(0,0,0); fill-rule: nonzero; opacity: 1;"  transform=" translate(-231.05, -40.93)" d="M 234.658 43.401 c 0.786 -0.443 1.464 -0.978 2.015 -1.615 s 0.979 -1.377 1.275 -2.221 c 0.325 -0.926 0.481 -1.808 0.458 -2.645 s -0.228 -1.629 -0.605 -2.375 c -0.382 -0.754 -0.91 -1.405 -1.581 -1.935 s -1.484 -0.944 -2.437 -1.234 c -1.582 -0.482 -3.089 -0.449 -4.443 0.107 c -1.368 0.561 -2.212 1.489 -2.536 2.713 c -0.312 1.177 0.024 2.326 0.925 3.452 c 0.911 1.14 2.154 1.964 3.757 2.457 c 0.87 0.267 1.693 0.295 2.479 0.081 c -0.44 0.771 -1.232 1.27 -2.376 1.512 c -1.144 0.243 -2.374 0.168 -3.711 -0.212 c -0.521 -0.706 -0.783 -1.059 -1.317 -1.76 c -1.16 0.595 -1.733 0.899 -2.869 1.517 c 0.977 1.255 1.765 2.308 2.487 3.296 s 1.378 1.911 2.067 2.909 c 0.689 0.998 1.415 2.073 2.254 3.37 c 1.083 -0.51 1.629 -0.759 2.732 -1.248 c -0.696 -1.058 -1.232 -1.847 -1.777 -2.634 s -1.098 -1.57 -1.854 -2.61 c 0.912 0.134 1.787 0.124 2.628 -0.029 S 233.88 43.84 234.658 43.401 z M 233.651 37.659 c -0.471 -0.018 -0.933 -0.096 -1.391 -0.236 c -0.658 -0.202 -1.186 -0.536 -1.581 -0.983 c -0.373 -0.422 -0.503 -0.845 -0.378 -1.274 c 0.139 -0.477 0.458 -0.837 0.975 -1.075 c 0.539 -0.203 1.105 -0.218 1.692 -0.039 c 0.76 0.231 1.324 0.682 1.688 1.346 c 0.362 0.664 0.43 1.34 0.207 2.025 C 234.5 37.566 234.096 37.644 233.651 37.659 z" stroke-linecap="round" />
</g>
		<g transform="matrix(1 0 0 1 57.58 -143.53)" id="Devanagari_2_"  >
<path style="stroke: none; stroke-width: 1; stroke-dasharray: none; stroke-linecap: butt; stroke-dashoffset: 0; stroke-linejoin: miter; stroke-miterlimit: 4; fill: rgb(0,0,0); fill-rule: nonzero; opacity: 1;"  transform=" translate(-244.08, -43.47)" d="M 237.277 52.216 c 0.566 -1.488 1.062 -2.789 1.521 -3.998 s 0.885 -2.325 1.31 -3.441 s 0.85 -2.231 1.31 -3.44 s 0.954 -2.511 1.52 -3.999 c -1.383 -0.525 -2.075 -0.781 -3.468 -1.272 c 0.363 -1.026 0.546 -1.538 0.909 -2.564 c 1.415 0.5 2.59 0.935 3.683 1.351 s 2.104 0.814 3.19 1.255 s 2.245 0.923 3.63 1.525 c -0.435 0.998 -0.652 1.499 -1.087 2.497 c -1.36 -0.592 -2.045 -0.881 -3.416 -1.439 c -0.601 1.474 -1.126 2.764 -1.614 3.961 s -0.938 2.304 -1.389 3.409 s -0.903 2.212 -1.392 3.41 s -1.014 2.486 -1.615 3.96 C 239.137 52.931 238.519 52.688 237.277 52.216 z" stroke-linecap="round" />
</g>
		<g transform="matrix(1 0 0 1 66.51 -139.79)" id="Devanagari_2_"  >
<path style="stroke: none; stroke-width: 1; stroke-dasharray: none; stroke-linecap: butt; stroke-dashoffset: 0; stroke-linejoin: miter; stroke-miterlimit: 4; fill: rgb(0,0,0); fill-rule: nonzero; opacity: 1;"  transform=" translate(-253.01, -47.21)" d="M 245.726 55.744 c 0.661 -1.448 1.238 -2.715 1.775 -3.891 s 1.034 -2.263 1.53 -3.349 s 0.993 -2.172 1.53 -3.349 s 1.115 -2.442 1.776 -3.89 c -1.353 -0.617 -2.03 -0.919 -3.394 -1.503 c 0.429 -1.001 0.643 -1.5 1.071 -2.501 c 1.387 0.594 2.537 1.107 3.606 1.597 s 2.059 0.956 3.119 1.469 s 2.194 1.076 3.545 1.772 c -0.499 0.968 -0.748 1.452 -1.247 2.419 c -1.327 -0.685 -1.996 -1.019 -3.336 -1.669 c -0.695 1.432 -1.301 2.684 -1.866 3.848 s -1.087 2.239 -1.608 3.313 s -1.044 2.147 -1.609 3.31 c -0.565 1.164 -1.174 2.417 -1.869 3.848 C 247.545 56.583 246.94 56.299 245.726 55.744 z" stroke-linecap="round" />
</g>
		<g transform="matrix(1 0 0 1 83.43 -131.66)" id="Devanagari_2_"  >
<path style="stroke: none; stroke-width: 1; stroke-dasharray: none; stroke-linecap: butt; stroke-dashoffset: 0; stroke-linejoin: miter; stroke-miterlimit: 4; fill: rgb(0,0,0); fill-rule: nonzero; opacity: 1;"  transform=" translate(-269.93, -55.34)" d="M 258.21 44.093 c 0.493 -0.971 0.738 -1.455 1.231 -2.426 c 1.607 0.817 3.071 1.594 4.438 2.344 s 2.638 1.473 3.856 2.187 s 2.387 1.418 3.548 2.14 s 2.316 1.459 3.505 2.241 s 2.41 1.609 3.707 2.516 s 2.669 1.893 4.148 3 c -0.651 0.873 -0.979 1.31 -1.63 2.182 c -1.226 -0.917 -1.842 -1.368 -3.084 -2.25 c -0.921 1.298 -1.725 2.435 -2.473 3.49 s -1.438 2.029 -2.129 3.003 s -1.383 1.947 -2.131 3.002 s -1.552 2.19 -2.473 3.488 c -1.114 -0.792 -1.676 -1.179 -2.805 -1.941 c 0.908 -1.348 1.589 -2.358 2.27 -3.37 s 1.361 -2.023 2.27 -3.371 c -1.36 -0.918 -2.044 -1.367 -3.424 -2.244 c 0.115 -1.252 0.164 -1.88 0.258 -3.139 c 0.954 0.593 1.668 1.047 2.377 1.507 s 1.411 0.923 2.348 1.555 c 1.116 -1.657 1.676 -2.484 2.792 -4.142 c -1.085 -0.732 -1.903 -1.27 -2.726 -1.8 s -1.648 -1.054 -2.756 -1.736 c -0.874 1.422 -1.312 2.134 -2.186 3.557 c -0.547 0.889 -1.292 1.469 -2.154 1.785 c -0.865 0.317 -1.665 0.301 -2.383 -0.121 c -0.308 -0.181 -0.535 -0.331 -0.674 -0.437 c -0.165 -0.127 -0.264 -0.226 -0.29 -0.298 c 0.271 1.8 0.443 3.146 0.604 4.49 s 0.307 2.687 0.467 4.47 c -1.316 -0.088 -1.972 -0.124 -3.276 -0.177 c -0.143 -1.513 -0.289 -2.839 -0.439 -4.073 s -0.305 -2.378 -0.472 -3.521 s -0.347 -2.287 -0.558 -3.529 c -0.211 -1.242 -0.452 -2.581 -0.755 -4.114 c 1.429 -0.034 2.148 -0.042 3.592 -0.039 c 0.133 1.232 0.305 2.125 0.437 2.624 c 0.17 0.641 0.368 1.104 0.685 1.285 c 0.396 0.225 0.812 0.289 1.229 0.23 c 0.402 -0.057 0.713 -0.232 0.9 -0.555 c 0.817 -1.404 1.228 -2.106 2.045 -3.511 c -1.559 -0.908 -2.738 -1.565 -3.922 -2.21 S 259.807 44.904 258.21 44.093 z" stroke-linecap="round" />
</g>
		<g transform="matrix(1 0 0 1 102.44 -118.29)" id="Devanagari_2_"  >
<path style="stroke: none; stroke-width: 1; stroke-dasharray: none; stroke-linecap: butt; stroke-dashoffset: 0; stroke-linejoin: miter; stroke-miterlimit: 4; fill: rgb(0,0,0); fill-rule: nonzero; opacity: 1;"  transform=" translate(-288.94, -68.71)" d="M 280.245 57.704 c 0.646 -0.876 0.969 -1.315 1.614 -2.192 c 1.525 1.126 2.884 2.17 4.141 3.164 s 2.41 1.937 3.527 2.872 s 2.195 1.863 3.293 2.833 c 1.098 0.971 2.213 1.984 3.401 3.097 s 2.451 2.328 3.832 3.709 c -0.77 0.77 -1.153 1.154 -1.923 1.924 c -1.113 -1.114 -1.677 -1.662 -2.811 -2.742 c -1.097 1.153 -2.057 2.161 -2.947 3.098 s -1.714 1.802 -2.536 2.667 s -1.646 1.729 -2.537 2.666 c -0.891 0.937 -1.85 1.946 -2.946 3.099 c -1.019 -0.97 -1.533 -1.448 -2.569 -2.388 c 1.275 -1.409 2.235 -2.464 3.191 -3.521 s 1.911 -2.114 3.187 -3.523 c -0.912 -0.827 -1.603 -1.438 -2.297 -2.042 s -1.393 -1.202 -2.33 -1.985 c -0.237 -0.198 -0.5 -0.268 -0.734 -0.271 c -0.243 -0.003 -0.472 0.062 -0.629 0.254 c -0.473 0.576 -0.708 0.864 -1.181 1.439 c -0.206 0.251 -0.49 0.403 -0.825 0.434 c -0.317 0.029 -0.616 -0.071 -0.872 -0.279 c -0.676 -0.547 -1.108 -1.769 -1.35 -3.684 c -0.236 -1.875 -0.113 -3.177 0.424 -3.893 c 0.209 -0.278 0.53 -0.424 0.968 -0.436 c 0.398 -0.011 0.78 0.123 1.154 0.411 c 1.305 1.004 2.382 1.864 3.38 2.677 s 1.917 1.582 2.899 2.423 s 2.026 1.755 3.266 2.878 c 0.97 -1.072 1.456 -1.607 2.426 -2.679 c -1.183 -1.072 -2.228 -1.99 -3.206 -2.83 s -1.887 -1.603 -2.804 -2.354 s -1.841 -1.49 -2.848 -2.276 S 281.505 58.634 280.245 57.704 z" stroke-linecap="round" />
</g>
</g>
</g>
</svg>